<?xml version="1.0" encoding="UTF-8" standalone="no"?>
<!-- Created with Inkscape (http://www.inkscape.org/) -->

<svg
   width="512"
   height="512"
   viewBox="0 0 512 512"
   version="1.1"
   id="svg1"
   xml:space="preserve"
   sodipodi:docname="VT_LOGO-2.svg"
   inkscape:version="1.4.3 (0d15f75, 2025-12-25)"
   inkscape:export-filename="VT_LOGO-2.png"
   inkscape:export-xdpi="96"
   inkscape:export-ydpi="96"
   xmlns:inkscape="http://www.inkscape.org/namespaces/inkscape"
   xmlns:sodipodi="http://sodipodi.sourceforge.net/DTD/sodipodi-0.dtd"
   xmlns="http://www.w3.org/2000/svg"
   xmlns:svg="http://www.w3.org/2000/svg"><sodipodi:namedview
     id="namedview1"
     pagecolor="#505050"
     bordercolor="#eeeeee"
     borderopacity="1"
     inkscape:showpageshadow="0"
     inkscape:pageopacity="0"
     inkscape:pagecheckerboard="0"
     inkscape:deskcolor="#505050"
     inkscape:document-units="px"
     inkscape:zoom="1.1145218"
     inkscape:cx="180.79502"
     inkscape:cy="312.69015"
     inkscape:window-width="1920"
     inkscape:window-height="1009"
     inkscape:window-x="-8"
     inkscape:window-y="-8"
     inkscape:window-maximized="1"
     inkscape:current-layer="g59"
     showguides="false" /><defs
     id="defs1"><mask
       maskUnits="userSpaceOnUse"
       id="mask112"><path
         id="path113"
         style="baseline-shift:baseline;display:inline;overflow:visible;vector-effect:none;fill:#ffffff;stroke-width:1;enable-background:accumulate;stop-color:#000000"
         d="m 515.82656,-266.97965 c -23.45852,0 -27.35298,19.04258 -8.69477,42.50108 l 26.40617,33.19982 h 509.99994 l -26.4062,-33.19982 c -18.65817,-23.4585 -52.84668,-42.50108 -76.30518,-42.50108 z" /></mask><mask
       maskUnits="userSpaceOnUse"
       id="mask118"><g
         id="g118"
         style="opacity:1"
         transform="matrix(1,0,0.79537095,1,-241.54068,-441.5262)"><path
           id="path118"
           style="baseline-shift:baseline;display:inline;overflow:visible;vector-effect:none;fill:#ffffff;enable-background:accumulate;stop-color:#000000;stop-opacity:1"
           d="m 618.53799,176.78656 c -22.24631,0 -40.25889,18.01467 -40.25889,40.26108 v 30.9598 h 505.5199 v -30.9598 c 0,-22.24627 -18.0148,-40.26108 -40.2611,-40.26108 z" /></g></mask></defs><g
     inkscape:label="Layer 1"
     inkscape:groupmode="layer"
     id="layer1"><g
       id="g59"
       transform="matrix(0.89285395,0,0,0.89285395,5.1071472,27.429389)"><g
         id="g47"
         transform="translate(-573.668)"
         style="fill:#4ce870;fill-opacity:1;stroke:#000000;stroke-width:10;stroke-dasharray:none;stroke-opacity:1"
         inkscape:label="board_bg"><path
           id="path36"
           style="display:inline;fill:#4ce870;fill-opacity:1;stroke:#000000;stroke-width:10;stroke-dasharray:none;stroke-opacity:1"
           d="m 617.168,68.5 c -20.775,0 -37.5,16.725 -37.5,37.5 V 134.20117 406 c 0,20.775 16.725,37.5 37.5,37.5 h 425.002 c 8.2669,-4e-4 15.8933,-2.65043 22.08,-7.15039 1.7047,-0.87538 3.3313,-1.87919 4.8672,-3 1.7069,-0.87311 3.3344,-1.87874 4.8692,-3.00195 1.7049,-0.8691 3.3291,-1.87101 4.8593,-2.99414 1.7156,-0.87031 3.3492,-1.87982 4.8848,-3.01172 1.7058,-0.86313 3.3291,-1.86559 4.8535,-2.99219 1.7144,-0.86252 3.3431,-1.86663 4.8711,-3 1.7182,-0.86061 3.3494,-1.86813 4.877,-3.00586 1.7166,-0.85666 3.3447,-1.8632 4.8672,-3.00195 1.7186,-0.85329 3.3468,-1.85868 4.8671,-3 1.7188,-0.84911 3.345,-1.85498 4.8614,-2.99805 9.935,-4.8784 16.7422,-15.08534 16.7422,-26.93945 v -217.4375 -0.002 -22.56054 c 0,-10.9696 -5.8284,-20.52693 -14.5704,-25.75782 -1.4772,-1.34323 -3.0877,-2.54394 -4.8086,-3.58007 -1.4852,-1.34527 -3.1009,-2.54905 -4.8261,-3.5918 -1.4839,-1.33822 -3.0932,-2.54027 -4.8106,-3.58399 -1.4913,-1.33976 -3.1067,-2.54418 -4.8281,-3.593745 -1.4919,-1.334473 -3.1057,-2.534903 -4.8223,-3.585937 -1.4889,-1.327054 -3.097,-2.524889 -4.8046,-3.576172 -1.5002,-1.333509 -3.1169,-2.539905 -4.834,-3.59961 -1.4947,-1.322895 -3.1015,-2.52081 -4.8067,-3.578125 -1.503,-1.326555 -3.1187,-2.529959 -4.8301,-3.59375 -1.4969,-1.316431 -3.1016,-2.512793 -4.8007,-3.574219 C 1060.3316,72.00046 1051.6732,68.5 1042.17,68.5 Z" /></g><path
         id="rect1"
         style="display:inline;fill:#ffffff;stroke:#000000;stroke-width:10;stroke-dasharray:none;stroke-opacity:1"
         d="M 506,134.20117 H 6 V 406 c 0,20.775 16.725,37.5 37.5,37.5 h 425 c 20.775,0 37.5,-16.725 37.5,-37.5 z"
         inkscape:label="board" /><g
         id="g11"
         inkscape:label="VT_LOGO"
         transform="translate(155.24043,517.48876)"
         style="fill:#6f42c1;fill-opacity:1"><g
           id="g10"
           inkscape:label="LOGO_MAIN"
           style="fill:#6f42c1;fill-opacity:1;stroke:none"><path
             id="rect6"
             style="fill:#6f42c1;fill-opacity:1;stroke:none;stroke-width:4;stroke-dasharray:none;stroke-opacity:1"
             d="m 235.26172,-335.08398 c -1.08637,0.0269 -2.16985,0.1651 -3.22461,0.42578 -2.60214,0.6431 -5.02485,2.35723 -10.32422,7.30468 -5.02328,4.6897 -10.31135,8.50172 -19.25586,13.87891 -16.0593,9.65442 -15.84646,9.56183 -18.73828,8.06641 -1.27978,-0.6618 -4.61828,-1.60231 -7.41797,-2.08985 -6.41479,-1.11709 -10.86839,-0.0582 -14.32812,3.40625 -2.29507,2.29825 -2.49491,2.94029 -2.88868,9.27735 -0.60384,9.71802 -1.1874,10.44947 -14.6621,18.37304 -41.12553,24.18314 -41.10064,24.16952 -50.582036,27.19532 -7.96928,2.54323 -9.635546,3.37922 -12.603516,6.32812 -3.30754,3.28629 -3.407155,3.52736 -3.041016,7.33789 0.421071,4.38212 3.093912,8.39482 7.707032,11.57227 2.23927,1.54237 3.342311,1.77204 6.957031,1.44922 6.7935,-0.60672 10.490675,-2.57022 23.828125,-12.65821 25.77535,-19.4956 33.85911,-24.58466 39.07617,-24.60156 3.56865,-0.0116 7.529,2.50573 9.32227,5.92383 1.50406,2.86685 1.61719,4.62802 1.85547,28.83398 0.18417,18.71029 -0.12699,31.56659 -1.13477,46.875 -1.72455,26.19653 -1.94095,61.92651 -0.40234,66.2793 3.53649,10.00485 15.51078,14.704587 25.11132,9.85547 3.30153,-1.66756 6.68034,-5.1137 7.625,-7.77539 1.12797,-3.17814 -0.25611,-104.38481 -1.63476,-119.53125 -0.64533,-7.08984 -1.27329,-22.51269 -1.39648,-34.27344 l -0.22461,-21.38281 5.43359,-3.1211 c 40.20798,-23.09557 50.35351,-30.32503 50.35352,-35.88085 0,-6.04143 -7.80559,-11.25638 -15.41016,-11.06836 z" /><path
             id="path8"
             style="fill:#6f42c1;fill-opacity:1;stroke:none;stroke-width:4;stroke-dasharray:none;stroke-opacity:1"
             d="m 109.44922,-357.12109 c -9.965773,0.14966 -20.825654,6.07218 -28.406251,15.7832 -4.02908,5.16139 -31.47308,47.16075 -38.96875,59.63672 -10.35457,17.23441 -18.113377,33.3493 -29.716797,61.71875 -1.84535,4.51172 -4.0201614,9.16591 -4.8320314,10.3418 -2.73022,3.95429 -9.1310912,4.14235 -12.8945312,0.3789 -2.1122,-2.1122 -2.3840522,-3.60705 -5.6953124,-31.23047 -2.65208,-22.12441 -3.687813,-27.0957 -6.845703,-32.88281 -2.72079,-4.98608 -5.959932,-6.76911 -12.263672,-6.74609 -7.72898,0.0282 -13.800255,3.50409 -16.990234,9.72656 -3.74245,7.30014 -2.276071,18.85759 5.255859,41.42773 5.92275,17.74808 29.755514,79.10513 32.1152342,82.67969 1.17292,1.77676 3.3024707,3.59306 5.2441407,4.47461 4.33848994,1.96974 13.1406434,2.04811 16.9394531,0.15039 4.35956,-2.17784 7.136685,-7.35276 12.296875,-22.92187 7.87471,-23.75927 27.588573,-71.73074 36.095703,-87.83399 16.5225,-31.27563 29.791888,-47.39605 51.351567,-62.38672 11.51652,-8.00756 14.667,-13.17302 14.65039,-24.01562 -0.0172,-11.20912 -3.89525,-16.52845 -13.13086,-18.00586 -1.37505,-0.21997 -2.7814,-0.3163 -4.20508,-0.29492 z" /></g><g
           id="g9"
           style="display:inline;fill:#000000;fill-opacity:1;stroke:none"
           inkscape:label="LOGO_OUTLINE"><path
             id="path9"
             style="fill:#000000;fill-opacity:1;stroke:none;stroke-width:4;stroke-dasharray:none;stroke-opacity:1"
             d="m 236.625,-341.07617 c -7.32876,0 -10.86631,1.72065 -19.00586,9.24414 -5.39675,4.98829 -10.46578,8.63541 -19.25,13.84961 l -11.92578,7.07812 -4.01758,-1.38867 c -2.44584,-0.8453 -6.31239,-1.39148 -9.8789,-1.39648 -12.89162,-0.0184 -19.53126,6.60361 -19.53126,19.48047 0,2.41801 -0.43945,4.9616 -0.97656,5.65234 -1.11944,1.43966 -41.96051,25.59797 -50.19531,29.69141 -3.007815,1.49515 -8.100899,3.50933 -11.318359,4.47461 -7.8203,2.34615 -10.907143,4.01329 -14.226563,7.6875 -6.40501,7.08959 -5.864978,15.53193 1.513672,23.69921 5.00175,5.53635 10.329679,7.39671 17.693359,6.17579 7.008161,-1.16198 13.118851,-4.49643 24.898441,-13.58594 14.40893,-11.1184 27.77408,-20.50712 31.26758,-21.9668 4.81098,-2.01015 6.70483,-1.61149 8.2207,1.73438 1.17902,2.60227 1.31114,6.07283 1.18945,31.05468 -0.0783,16.07307 -0.66439,35.65746 -1.36719,45.70313 -2.77267,39.63188 -2.45696,58.1177 1.12891,66.23633 2.63738,5.9712 7.87346,10.481 14.82813,12.76757 3.61268,1.18778 13.39859,0.30227 16.9707,-1.53515 8.46485,-4.35414 12.24318,-10.33533 12.12304,-19.19531 -0.0413,-3.04567 -0.21635,-26.28125 -0.38867,-51.63282 -0.24168,-35.55594 -0.60913,-48.94018 -1.60742,-58.54492 -0.71179,-6.84823 -1.52895,-22.1598 -1.81641,-34.02734 l -0.52343,-21.57813 8.1289,-4.59375 c 14.12831,-7.98518 36.12305,-21.5276 39.65625,-24.41601 7.0597,-5.77135 9.74166,-11.63541 7.99219,-17.47461 -2.08927,-6.97339 -11.32049,-13.19336 -19.58203,-13.19336 z m -1.36328,5.99219 c 7.60457,-0.18802 15.41016,5.02693 15.41016,11.06836 -10e-6,5.55582 -10.14554,12.78528 -50.35352,35.88085 l -5.43359,3.1211 0.22461,21.38281 c 0.12319,11.76075 0.75115,27.1836 1.39648,34.27344 1.37865,15.14644 2.76273,116.35311 1.63476,119.53125 -0.94466,2.66169 -4.32347,6.10783 -7.625,7.77539 -9.60054,4.84912 -21.57483,0.14938 -25.11132,-9.85547 -1.53861,-4.35279 -1.32221,-40.08277 0.40234,-66.2793 1.00778,-15.30841 1.31894,-28.16471 1.13477,-46.875 -0.23828,-24.20596 -0.35141,-25.96713 -1.85547,-28.83398 -1.79327,-3.4181 -5.75362,-5.93543 -9.32227,-5.92383 -5.21706,0.0169 -13.30082,5.10596 -39.07617,24.60156 -13.33745,10.08799 -17.034625,12.05149 -23.828125,12.65821 -3.61472,0.32282 -4.717761,0.0932 -6.957031,-1.44922 -4.61312,-3.17745 -7.285961,-7.19015 -7.707032,-11.57227 -0.366139,-3.81053 -0.266524,-4.0516 3.041016,-7.33789 2.96797,-2.9489 4.634236,-3.78489 12.603516,-6.32812 9.481396,-3.0258 9.456506,-3.01218 50.582036,-27.19532 13.4747,-7.92357 14.05826,-8.65502 14.6621,-18.37304 0.39377,-6.33706 0.59361,-6.9791 2.88868,-9.27735 3.45973,-3.46447 7.91333,-4.52334 14.32812,-3.40625 2.79969,0.48754 6.13819,1.42805 7.41797,2.08985 2.89182,1.49542 2.67898,1.58801 18.73828,-8.06641 8.94451,-5.37719 14.23258,-9.18921 19.25586,-13.87891 5.29937,-4.94745 7.72208,-6.66158 10.32422,-7.30468 1.05476,-0.26068 2.13824,-0.39893 3.22461,-0.42578 z" /><path
             id="path7"
             style="fill:#000000;fill-opacity:1;stroke:none;stroke-width:4;stroke-dasharray:none;stroke-opacity:1"
             d="m 110.11914,-362.93164 c -12.535504,0.0465 -22.808394,5.27054 -32.609374,16.58398 -4.23433,4.88777 -30.541229,44.86354 -40.699219,61.84571 -8.60963,14.39365 -19.69111,36.78458 -25.9375,52.41015 -7.0845498,17.72224 -8.3263138,20.07715 -10.43359388,19.77735 -2.11199992,-0.30046 -2.07808432,-0.12536 -5.61523432,-29.25977 -3.01574,-24.83981 -4.9169698,-32.35008 -9.5624998,-37.77734 -5.65118,-6.60213 -13.831778,-8.51092 -23.673828,-5.52149 -7.2449,2.20057 -13.003562,7.53342 -15.263672,14.13477 -3.09217,9.03166 -1.621457,20.22566 5.533203,42.11719 5.14083,15.72969 30.449621,81.02225 32.988281,85.10351 2.65646,4.27066 5.079339,6.11535 10.4746095,7.97852 7.95593,2.74744 18.4342425,1.33765 23.5703125,-3.17188 3.86998,-3.39789 6.435333,-8.79726 11.820313,-24.86914 5.256029,-15.68699 21.797288,-57.29056 29.324218,-73.7539 5.52738,-12.08981 14.005385,-27.19762 20.953125,-37.33594 10.75498,-15.69393 18.833334,-24.08725 31.792969,-33.03516 9.13605,-6.30793 14.42608,-11.64105 17.25195,-17.39648 2.1189,-4.31554 2.2793,-5.2848 2.2793,-13.63086 0,-8.23911 -0.1781,-9.35043 -2.16602,-13.39844 -3.65402,-7.44074 -9.95447,-10.83818 -20.02734,-10.80078 z m -0.66992,5.81055 c 1.42368,-0.0214 2.83003,0.075 4.20508,0.29492 9.23561,1.47741 13.11366,6.79674 13.13086,18.00586 0.0166,10.8426 -3.13387,16.00806 -14.65039,24.01562 -21.559679,14.99067 -34.829067,31.11109 -51.351567,62.38672 -8.50713,16.10325 -28.220993,64.07472 -36.095703,87.83399 -5.16019,15.56911 -7.937315,20.74403 -12.296875,22.92187 -3.7988097,1.89772 -12.60096316,1.81935 -16.9394531,-0.15039 -1.94167,-0.88155 -4.0712207,-2.69785 -5.2441407,-4.47461 -2.3597202,-3.57456 -26.1924842,-64.93161 -32.1152342,-82.67969 -7.53193,-22.57014 -8.998309,-34.12759 -5.255859,-41.42773 3.189979,-6.22247 9.261254,-9.69836 16.990234,-9.72656 6.30374,-0.023 9.542882,1.76001 12.263672,6.74609 3.15789,5.78711 4.193623,10.7584 6.845703,32.88281 3.3112602,27.62342 3.5831124,29.11827 5.6953124,31.23047 3.76344,3.76345 10.1643112,3.57539 12.8945312,-0.3789 0.81187,-1.17589 2.9866814,-5.83008 4.8320314,-10.3418 11.60342,-28.36945 19.362227,-44.48434 29.716797,-61.71875 7.49567,-12.47597 34.93967,-54.47533 38.96875,-59.63672 7.580597,-9.71102 18.440478,-15.63354 28.406251,-15.7832 z"
             sodipodi:nodetypes="sssssssssssssssssssssssssssssssssssssssss" /></g></g><g
         id="g109"
         transform="matrix(1,0,-0.79537095,1,-684.6755,330.47979)"
         mask="url(#mask118)"
         inkscape:label="clapper"><path
           id="rect94"
           style="fill:#ffffff;fill-opacity:1;stroke:none;stroke-width:2.39368;stroke-dasharray:none;stroke-opacity:1"
           d="M 983.08509 267.28454 L 983.08326 191.27958 L 1013.3102 191.27958 L 1043.5372 191.27958 L 1043.5391 267.28454 L 1013.3121 267.28454 L 983.08509 267.28454 z "
           transform="scale(1,-1)" /><path
           id="rect95"
           style="fill:#000000;fill-opacity:1;stroke:none;stroke-width:2.39368;stroke-dasharray:none;stroke-opacity:1"
           d="M 899.80213 267.28454 L 899.8003 191.27958 L 930.0251 191.27958 L 960.25208 191.27958 L 960.25391 267.28454 L 930.02693 267.28454 L 899.80213 267.28454 z "
           transform="matrix(1,0,0,-1,22.831174,-5.4842906e-6)" /><path
           id="rect98"
           style="fill:#ffffff;fill-opacity:1;stroke:none;stroke-width:2.39368;stroke-dasharray:none;stroke-opacity:1"
           d="M 899.80105 267.28454 L 899.79922 191.27958 L 930.0262 191.27958 L 960.25318 191.27958 L 960.25501 267.28454 L 930.02803 267.28454 L 899.80105 267.28454 z "
           transform="matrix(1,0,0,-1,-37.621703,-5.4842906e-6)" /><path
           id="rect100"
           style="fill:#000000;fill-opacity:1;stroke:none;stroke-width:2.39368;stroke-dasharray:none;stroke-opacity:1"
           d="M 899.80214 267.28454 L 899.80031 191.27958 L 930.02511 191.27958 L 960.25209 191.27958 L 960.25392 267.28454 L 930.02694 267.28454 L 899.80214 267.28454 z "
           transform="matrix(1,0,0,-1,-98.07458,-5.4842906e-6)" /><path
           id="rect102"
           style="fill:#ffffff;fill-opacity:1;stroke:none;stroke-width:2.39368;stroke-dasharray:none;stroke-opacity:1"
           d="M 899.80105 267.28454 L 899.79922 191.27958 L 930.0262 191.27958 L 960.25318 191.27958 L 960.25501 267.28454 L 930.02803 267.28454 L 899.80105 267.28454 z "
           transform="matrix(1,0,0,-1,-158.52746,-5.4842906e-6)" /><path
           id="rect104"
           style="fill:#000000;fill-opacity:1;stroke:none;stroke-width:2.39368;stroke-dasharray:none;stroke-opacity:1"
           d="M 899.80215 267.28454 L 899.80032 191.27958 L 930.02511 191.27958 L 960.2521 191.27958 L 960.25393 267.28454 L 930.02694 267.28454 L 899.80215 267.28454 z "
           transform="matrix(1,0,0,-1,-218.98033,-5.4842906e-6)" /><path
           id="rect106"
           style="fill:#ffffff;fill-opacity:1;stroke:none;stroke-width:2.39368;stroke-dasharray:none;stroke-opacity:1"
           d="M 899.80106 267.28454 L 899.79923 191.27958 L 930.02622 191.27958 L 960.2532 191.27958 L 960.25284 267.28454 L 930.02805 267.28454 L 899.80106 267.28454 z "
           transform="matrix(1,0,0,-1,-279.43321,-5.4842906e-6)" /><path
           id="path94"
           style="fill:#000000;fill-opacity:1;stroke:none;stroke-width:4.08834;stroke-dasharray:none;stroke-opacity:1"
           d="m 486.32705,266.78156 v -74.99871 h 44.67984 44.67985 44.67985 v 74.99871 h -44.67985 -44.67985 z"
           transform="matrix(1,0,0,-1,-7.2256436e-6,-5.4842906e-6)" /></g><path
         id="path1"
         style="display:inline;fill:none;stroke:#000000;stroke-width:10;stroke-dasharray:none;stroke-opacity:1"
         d="m 43.5,68.499872 c -20.775,0 -37.5,16.725 -37.5,37.499998 v 28.20117 H 506 V 120.10045 105.99987 C 506,85.224872 489.275,68.499872 468.5,68.499872 Z"
         sodipodi:nodetypes="sscccsss" /></g></g></svg>
