<?xml version="1.0" encoding="UTF-8" standalone="no"?>
<!-- Created with Inkscape (http://www.inkscape.org/) -->

<svg
   width="1024"
   height="1024"
   viewBox="0 0 1024 1024"
   version="1.1"
   id="svg1"
   inkscape:version="1.4.3 (0d15f75, 2025-12-25)"
   sodipodi:docname="VT_logo.svg"
   inkscape:export-filename="VT_logo.png"
   inkscape:export-xdpi="96"
   inkscape:export-ydpi="96"
   xmlns:inkscape="http://www.inkscape.org/namespaces/inkscape"
   xmlns:sodipodi="http://sodipodi.sourceforge.net/DTD/sodipodi-0.dtd"
   xmlns="http://www.w3.org/2000/svg"
   xmlns:svg="http://www.w3.org/2000/svg">
  <sodipodi:namedview
     id="namedview1"
     pagecolor="#505050"
     bordercolor="#eeeeee"
     borderopacity="1"
     inkscape:showpageshadow="0"
     inkscape:pageopacity="0"
     inkscape:pagecheckerboard="0"
     inkscape:deskcolor="#505050"
     inkscape:document-units="px"
     inkscape:zoom="0.37323361"
     inkscape:cx="577.38637"
     inkscape:cy="563.98994"
     inkscape:window-width="1920"
     inkscape:window-height="1009"
     inkscape:window-x="-8"
     inkscape:window-y="-8"
     inkscape:window-maximized="1"
     inkscape:current-layer="g19">
    <inkscape:page
       x="0"
       y="0"
       width="1024"
       height="1024"
       id="page1"
       margin="0"
       bleed="0" />
    <inkscape:page
       x="1034"
       y="0"
       width="1024"
       height="1024"
       id="page2"
       margin="0"
       bleed="0"
       inkscape:export-filename="VT_logo-bg.png"
       inkscape:export-xdpi="96"
       inkscape:export-ydpi="96" />
  </sodipodi:namedview>
  <defs
     id="defs1">
    <mask
       maskUnits="userSpaceOnUse"
       id="mask63">
      <path
         id="path63"
         style="fill:#ffffff;stroke:none;stroke-width:15"
         d="m 931.35752,251.23587 h 439.99998 v -25 c 0,-22.16 -17.84,-40 -40,-40 H 971.35752 c -22.16,0 -40,17.84 -40,40 z" />
    </mask>
  </defs>
  <g
     inkscape:label="Layer 1"
     inkscape:groupmode="layer"
     id="layer1">
    <g
       inkscape:groupmode="layer"
       id="layer21"
       inkscape:label="bg"
       style="display:inline">
      <rect
         style="fill:#040d1d;fill-opacity:1;stroke:none;stroke-width:0"
         id="rect1"
         width="1024"
         height="1024"
         x="1034"
         y="0" />
    </g>
    <g
       inkscape:groupmode="layer"
       id="layer22"
       inkscape:label="VT_Logo">
      <path
         id="path169"
         style="baseline-shift:baseline;display:inline;overflow:visible;opacity:1;vector-effect:none;fill:#ffffff;enable-background:accumulate;stop-color:#000000;stop-opacity:1"
         d="m 969.79883,173.54102 c -28.17111,0 -51.13672,23.12184 -51.13672,51.34765 v 25.2168 287.47851 c 0,28.22583 22.96561,51.34766 51.13672,51.34766 H 1331.041 c 4.3492,0 8.5976,-0.54561 12.6563,-1.57812 l 0.033,-0.006 c 0.687,-0.1344 1.3689,-0.28189 2.0449,-0.44336 l 0.7305,-0.15821 c 0.9602,-0.18722 1.9169,-0.38219 2.8515,-0.62109 0.6851,-0.13403 1.363,-0.28065 2.0352,-0.44141 l 0.789,-0.17187 c 0.67,-0.13096 1.3365,-0.27548 2,-0.4336 l 0.7969,-0.17382 c 0.6813,-0.13316 1.3569,-0.27962 2.0254,-0.43946 l 0.625,-0.13476 c 0.058,-0.0147 0.1195,-0.0241 0.1777,-0.0391 0.6683,-0.13037 1.3337,-0.27386 1.9961,-0.43164 l 0.1895,-0.041 c 0.8895,-0.16174 1.7638,-0.3641 2.6348,-0.57227 l 0.4238,-0.0918 c 0.1274,-0.0316 0.2597,-0.0514 0.3867,-0.084 0.672,-0.131 1.3414,-0.27643 2.0078,-0.43554 l 0.8145,-0.17579 c 0.6661,-0.13027 1.3268,-0.27492 1.9824,-0.43164 l 0.8203,-0.17773 c 0.669,-0.13048 1.3335,-0.27573 1.9941,-0.43359 l 0.8243,-0.17774 c 0.6717,-0.1313 1.3362,-0.27593 1.9941,-0.43359 l 0.2832,-0.0625 c 0.8476,-0.15535 1.6845,-0.34574 2.5176,-0.54492 1.1821,-0.20879 2.3503,-0.46239 3.5019,-0.75586 0.9026,-0.173 1.804,-0.35555 2.6934,-0.58008 0.7517,-0.1423 1.4907,-0.3085 2.2246,-0.48438 l 0.8496,-0.18359 c 0.659,-0.12808 1.3157,-0.26923 1.9707,-0.42578 l 0.6465,-0.14063 c 1.0202,-0.19481 2.034,-0.40231 3.0137,-0.65625 0.6555,-0.12746 1.3088,-0.2683 1.959,-0.42382 l 0.83,-0.17969 c 0.6533,-0.12678 1.3019,-0.26974 1.9473,-0.42383 l 0.248,-0.0527 c 0.2069,-0.0506 0.4191,-0.0833 0.625,-0.13671 0.8128,-0.15783 1.6262,-0.3161 2.4258,-0.50977 0.7929,-0.15305 1.5764,-0.33973 2.3594,-0.52734 l 0.1387,-0.0293 c 0.8986,-0.15966 1.778,-0.36763 2.6562,-0.57812 l 0.8906,-0.19336 c 0.6501,-0.12664 1.2939,-0.26678 1.9317,-0.41993 l 0.8926,-0.19336 c 0.6392,-0.1246 1.2732,-0.26326 1.9023,-0.41406 l 0.877,-0.18945 c 0.01,-0.002 0.016,-0.004 0.023,-0.006 0.6424,-0.12495 1.2799,-0.26245 1.9121,-0.41406 l 0.9063,-0.19727 c 0.644,-0.12536 1.2831,-0.26399 1.916,-0.41601 l 0.9101,-0.19727 c 0.6334,-0.12338 1.2615,-0.26066 1.8848,-0.41016 l 0.2773,-0.0605 c 0.2113,-0.0521 0.4306,-0.0836 0.6407,-0.13867 0.636,-0.12326 1.2703,-0.26076 1.9023,-0.41211 0.9465,-0.1633 1.8704,-0.38555 2.7949,-0.60743 l 0.9317,-0.20117 c 0.6321,-0.12287 1.2589,-0.25892 1.8808,-0.4082 l 0.3184,-0.0703 c 0.8477,-0.15217 1.6752,-0.34459 2.5,-0.54297 0.9462,-0.16242 1.8723,-0.38508 2.7988,-0.60742 l 0.834,-0.18165 c 0.037,-0.01 0.076,-0.0136 0.1133,-0.0234 0.6185,-0.11977 1.2348,-0.25333 1.8496,-0.40039 l 0.957,-0.20703 c 0.6283,-0.12207 1.2487,-0.25839 1.8633,-0.40625 l 0.9629,-0.20899 c 0.6205,-0.12059 1.2346,-0.25401 1.8437,-0.40039 l 0.9708,-0.21094 c 0.6233,-0.12085 1.2414,-0.25476 1.8554,-0.40234 l 0.9746,-0.21094 c 0.6123,-0.11881 1.2209,-0.25123 1.8262,-0.39648 l 0.9824,-0.21289 c 0.6144,-0.11905 1.2249,-0.25263 1.8321,-0.39844 l 0.9902,-0.21484 c 0.6069,-0.11771 1.2105,-0.24856 1.8105,-0.39258 l 0.9981,-0.2168 c 0.6089,-0.11825 1.2122,-0.24868 1.8105,-0.39258 l 0.016,-0.004 c 19.8377,-3.34798 34.8535,-20.76956 34.8535,-41.45118 V 300.54102 281.14258 c 0,-16.14107 -9.1108,-30.32729 -22.5782,-37.33399 -0.7282,-0.43991 -1.4815,-0.84595 -2.2343,-1.25195 l -0.9727,-0.55469 c -0.5785,-0.34924 -1.166,-0.6852 -1.7637,-1.00781 l -0.9668,-0.55273 c -0.5852,-0.35378 -1.1807,-0.6941 -1.7871,-1.02149 l -0.9609,-0.54883 c -0.5876,-0.35463 -1.183,-0.69559 -1.7871,-1.02148 l -0.9531,-0.54492 c -0.5957,-0.35944 -1.1991,-0.70373 -1.8106,-1.03321 l -0.9472,-0.54101 c -0.5981,-0.36125 -1.2078,-0.70858 -1.8282,-1.04297 l -0.9453,-0.53906 c -0.5838,-0.35162 -1.1757,-0.6901 -1.7754,-1.01367 l -0.3476,-0.19922 c -0.1988,-0.10492 -0.3855,-0.23215 -0.586,-0.33399 -0.8992,-0.54329 -1.7979,-1.08826 -2.7461,-1.57031 -0.599,-0.36141 -1.2061,-0.70851 -1.8222,-1.04102 l -0.7383,-0.42187 c -0.062,-0.0319 -0.1195,-0.0719 -0.1816,-0.10352 -0.6045,-0.3649 -1.2181,-0.71615 -1.8418,-1.05273 l -0.9141,-0.52149 c -0.6062,-0.36563 -1.2222,-0.71732 -1.8477,-1.05468 l -0.1211,-0.0703 c -0.2674,-0.14316 -0.5181,-0.31135 -0.789,-0.44921 -0.5953,-0.35858 -1.1966,-0.70365 -1.8067,-1.03321 l -0.9004,-0.51367 c -0.6195,-0.37435 -1.2498,-0.73439 -1.8906,-1.08008 -1.0314,-0.65426 -2.0945,-1.27018 -3.1875,-1.84375 -0.7563,-0.45741 -1.5345,-0.88021 -2.3144,-1.30078 l -0.039,-0.0215 c -0.8814,-0.55697 -1.7989,-1.05593 -2.7168,-1.55078 -1.0287,-0.65103 -2.0905,-1.26654 -3.1816,-1.83985 -0.7613,-0.46017 -1.5409,-0.88351 -2.3223,-1.30469 l -0.8691,-0.49609 c -0.5982,-0.36068 -1.2071,-0.71018 -1.8282,-1.04687 l -0.3105,-0.17774 c -0.8174,-0.50889 -1.6621,-0.97581 -2.5117,-1.43359 l -0.8574,-0.48828 c -0.6114,-0.36748 -1.231,-0.72115 -1.8594,-1.06055 l -0.8496,-0.48633 c -0.6178,-0.37203 -1.2442,-0.72904 -1.8789,-1.07226 l -0.8457,-0.48438 c -0.6382,-0.38487 -1.2861,-0.75454 -1.9434,-1.10937 l -0.8398,-0.47852 c -0.6161,-0.37072 -1.2385,-0.72801 -1.8711,-1.07031 l -0.8321,-0.47461 c -0.6373,-0.38491 -1.2881,-0.75663 -1.9511,-1.11524 l -0.8321,-0.47656 c -0.6312,-0.37962 -1.2688,-0.74339 -1.914,-1.0918 l -0.068,-0.0391 c -0.8645,-0.54228 -1.766,-1.03626 -2.6699,-1.52539 l -0.8203,-0.46679 c -0.6359,-0.38293 -1.2789,-0.7526 -1.9317,-1.10547 l -0.8164,-0.46485 c -0.635,-0.38236 -1.279,-0.75048 -1.9316,-1.10351 l -0.8106,-0.46289 c -0.7629,-0.45961 -1.5281,-0.91614 -2.3144,-1.33985 -0.7825,-0.47466 -1.5937,-0.91804 -2.4063,-1.35742 l -0.8027,-0.45898 c -0.6336,-0.38068 -1.2743,-0.74549 -1.9219,-1.09571 l -0.7949,-0.45508 c -0.7656,-0.46105 -1.5348,-0.91852 -2.3242,-1.34374 -0.7834,-0.47525 -1.5908,-0.91751 -2.4004,-1.35547 l -0.7871,-0.44922 c -0.641,-0.38572 -1.2935,-0.75794 -1.957,-1.11719 -0.901,-0.5643 -1.8313,-1.07225 -2.7637,-1.57617 l -0.012,-0.006 c -0.2585,-0.1396 -0.505,-0.30253 -0.7657,-0.4375 -0.6321,-0.38038 -1.2746,-0.74995 -1.9297,-1.10547 l -0.7714,-0.44141 c -0.6662,-0.40112 -1.3417,-0.78668 -2.0254,-1.15625 l -0.2989,-0.16992 c -0.784,-0.48244 -1.5879,-0.93072 -2.3964,-1.36914 l -0.7637,-0.43555 c -0.6704,-0.404 -1.3511,-0.79367 -2.043,-1.16796 -7.8373,-4.89298 -17.1545,-7.71875 -27.0332,-7.71875 z"
         inkscape:label="Clapper_Full-Outline"
         transform="matrix(1.5746963,0,0,1.5746963,-1384.6138,-88.331297)" />
      <path
         id="path127"
         style="display:inline;fill:#4ce870;fill-opacity:1;stroke:#000000;stroke-width:11.3828;stroke-opacity:1"
         d="m 985.70308,186.03008 c -21.54288,0 -38.88601,17.85897 -38.88601,40.04251 v 25.02656 285.30092 c 0,22.18355 17.34313,40.04251 38.88601,40.04251 h 349.97362 c 3.3367,0 6.5728,-0.42725 9.6589,-1.2337 0.9232,-0.16949 1.8353,-0.37281 2.7342,-0.60805 0.9164,-0.16838 1.8211,-0.3706 2.7133,-0.60424 0.9234,-0.16908 1.8336,-0.37239 2.7323,-0.60805 0.9152,-0.16778 1.8205,-0.3687 2.7113,-0.60213 0.9241,-0.16869 1.8351,-0.37211 2.7342,-0.60815 0.9169,-0.16738 1.823,-0.3681 2.7153,-0.60214 0.9243,-0.16828 1.8367,-0.3716 2.7359,-0.60805 0.9226,-0.16798 1.8333,-0.3699 2.7305,-0.60614 0.9178,-0.16718 1.8225,-0.369 2.7152,-0.60414 0.9217,-0.16738 1.8321,-0.3698 2.7284,-0.60614 0.9227,-0.16738 1.8335,-0.37121 2.7304,-0.60805 0.9184,-0.16658 1.8243,-0.3683 2.7171,-0.60414 0.883,-0.15977 1.7554,-0.35258 2.6145,-0.57682 0.9569,-0.16988 1.9003,-0.3778 2.829,-0.62376 0.9211,-0.16607 1.8281,-0.36899 2.7229,-0.60605 0.9237,-0.16637 1.835,-0.36799 2.7322,-0.60614 0.9186,-0.16547 1.8249,-0.36919 2.7172,-0.60614 0.9231,-0.16577 1.834,-0.36769 2.7304,-0.60605 0.9138,-0.16416 1.8161,-0.36458 2.7037,-0.60023 0.9265,-0.16537 1.8407,-0.36869 2.7398,-0.60815 0.9266,-0.16537 1.839,-0.36809 2.738,-0.60805 0.9185,-0.16416 1.8241,-0.36628 2.7152,-0.60414 0.9245,-0.16466 1.8356,-0.36829 2.7322,-0.60804 0.9184,-0.16377 1.8244,-0.36589 2.7153,-0.60414 0.9228,-0.16387 1.8318,-0.36649 2.7265,-0.60615 0.9245,-0.16396 1.8362,-0.36759 2.7323,-0.60803 0.9189,-0.16308 1.8244,-0.3651 2.7153,-0.60415 0.9246,-0.16347 1.8362,-0.36519 2.7321,-0.60614 0.9193,-0.16247 1.8247,-0.36449 2.7152,-0.60415 0.9232,-0.16256 1.8324,-0.36529 2.7266,-0.60614 0.9242,-0.16257 1.8355,-0.36659 2.7305,-0.60804 0.92,-0.16177 1.826,-0.36359 2.717,-0.60414 0.9201,-0.16127 1.8265,-0.36169 2.717,-0.60225 0.9258,-0.16156 1.8365,-0.36549 2.7323,-0.60804 0.9229,-0.16107 1.8319,-0.36419 2.7247,-0.60615 0.927,-0.16126 1.8397,-0.36458 2.7362,-0.60803 0.9205,-0.16038 1.8283,-0.3622 2.7188,-0.60415 0.9249,-0.16057 1.8344,-0.36269 2.7285,-0.60614 0.921,-0.15977 1.8287,-0.36149 2.7191,-0.60414 0.9235,-0.15967 1.8321,-0.36259 2.7247,-0.60614 14.1681,-2.4435 24.8941,-15.0698 24.8941,-30.37595 V 301.15229 281.90138 c 0,-12.07887 -6.6839,-22.4904 -16.4675,-27.54291 -0.8583,-0.56339 -1.7453,-1.08309 -2.6602,-1.55633 -0.8559,-0.56138 -1.7408,-1.07998 -2.6526,-1.55244 -0.8594,-0.56383 -1.7482,-1.08548 -2.6639,-1.56024 -0.8585,-0.56257 -1.7462,-1.08192 -2.6601,-1.55635 -0.8617,-0.56437 -1.7542,-1.08599 -2.6716,-1.56221 -0.8658,-0.56624 -1.7594,-1.09016 -2.681,-1.56805 -0.8523,-0.55633 -1.7333,-1.07124 -2.6391,-1.54267 -0.8606,-0.56234 -1.7491,-1.08389 -2.6639,-1.56024 -0.8595,-0.56107 -1.7472,-1.08039 -2.6601,-1.55636 -0.8628,-0.56295 -1.7532,-1.0844 -2.6697,-1.5622 -0.8628,-0.56221 -1.7553,-1.08452 -2.6714,-1.56218 -0.8529,-0.55522 -1.7329,-1.06946 -2.6374,-1.54268 -0.8704,-0.56707 -1.7687,-1.09367 -2.6925,-1.57589 -0.8495,-0.55195 -1.724,-1.06499 -2.6241,-1.53678 -0.8728,-0.56823 -1.7739,-1.09574 -2.6998,-1.57981 -0.8632,-0.55998 -1.7534,-1.07994 -2.6678,-1.5583 -0.8497,-0.55097 -1.7248,-1.06436 -2.6241,-1.53678 -0.8741,-0.56794 -1.7756,-1.09457 -2.7019,-1.5798 -0.8493,-0.55006 -1.7239,-1.06417 -2.6221,-1.53679 -0.8786,-0.57004 -1.7847,-1.1 -2.7151,-1.58763 -0.8547,-0.55209 -1.7341,-1.06588 -2.6374,-1.5407 -0.8576,-0.55462 -1.7406,-1.07122 -2.6469,-1.54851 -0.8714,-0.56397 -1.769,-1.08938 -2.6904,-1.57393 -0.8533,-0.55087 -1.7328,-1.06538 -2.6335,-1.5407 -0.8711,-0.56311 -1.7663,-1.08915 -2.6868,-1.57394 -0.8619,-0.55603 -1.7503,-1.07448 -2.6602,-1.55439 -0.86,-0.5546 -1.7449,-1.07312 -2.6524,-1.55242 -0.8643,-0.55743 -1.752,-1.07648 -2.6639,-1.5583 -0.8626,-0.55585 -1.7504,-1.07527 -2.6601,-1.55634 -0.8646,-0.55692 -1.7543,-1.078 -2.6659,-1.56025 -0.8706,-0.56036 -1.765,-1.08491 -2.6829,-1.57003 -0.8576,-0.55112 -1.7396,-1.06602 -2.6429,-1.5446 -0.8651,-0.55636 -1.7546,-1.07729 -2.666,-1.56026 -0.8679,-0.55785 -1.7591,-1.07974 -2.6734,-1.56416 -0.8622,-0.55335 -1.7486,-1.07299 -2.6563,-1.55438 -0.8678,-0.55682 -1.7599,-1.07783 -2.6733,-1.56221 -0.8548,-0.54795 -1.7311,-1.06256 -2.6298,-1.5407 -0.876,-0.56236 -1.776,-1.08846 -2.698,-1.57784 -0.8514,-0.54492 -1.7261,-1.05637 -2.6204,-1.53288 -0.8786,-0.56372 -1.7811,-1.09256 -2.7056,-1.58371 -5.9547,-3.80822 -12.9922,-6.00442 -20.5463,-6.00442 z"
         inkscape:label="Clapper_Shadow"
         transform="matrix(1.5746963,0,0,1.5746963,-1384.6138,-88.331297)" />
      <path
         id="rect40"
         style="fill:#ffffff;stroke:#000000;stroke-width:15"
         d="m 931.35742,251.23633 v 285 c 0,22.16 17.84,40 40,40 h 359.99998 c 22.16,0 40,-17.84 40,-40 v -285 z"
         inkscape:label="Clapper_MAIN"
         transform="matrix(1.5746963,0,0,1.5746963,-1384.6138,-88.331297)" />
      <g
         id="g55"
         mask="url(#mask63)"
         inkscape:label="Clapper-Chequered"
         transform="matrix(1.5746963,0,0,1.5746963,-1384.6138,-88.331297)">
        <path
           id="path23-7"
           style="display:inline;fill:#ffffff;fill-opacity:1;stroke:none;stroke-width:2.09091;stroke-dasharray:none;stroke-opacity:1"
           d="m 1375.7845,184.8451 -52.8074,66.39123 h 26.4036 26.4036 L 1428.59,184.8451 h -26.4036 z" />
        <path
           id="path24-5"
           style="display:inline;fill:#000000;fill-opacity:1;stroke:none;stroke-width:2.09091;stroke-dasharray:none;stroke-opacity:1"
           d="m 1322.9792,184.8451 -52.8074,66.39123 h 26.4017 26.4036 l 52.8074,-66.39123 h -26.4036 z" />
        <path
           id="path25-3"
           style="display:inline;fill:#ffffff;fill-opacity:1;stroke:none;stroke-width:2.09091;stroke-dasharray:none;stroke-opacity:1"
           d="m 1270.1719,184.8451 -52.8074,66.39123 h 26.4037 26.4036 l 52.8074,-66.39123 h -26.4036 z" />
        <path
           id="path26-4"
           style="display:inline;fill:#000000;fill-opacity:1;stroke:none;stroke-width:2.09091;stroke-dasharray:none;stroke-opacity:1"
           d="m 1217.3666,184.8451 -52.8074,66.39123 h 26.4017 26.4036 l 52.8074,-66.39123 h -26.4036 z" />
        <path
           id="path27-3"
           style="display:inline;fill:#ffffff;fill-opacity:1;stroke:none;stroke-width:2.09091;stroke-dasharray:none;stroke-opacity:1"
           d="m 1164.5593,184.8451 -52.8074,66.39123 h 26.4037 26.4036 l 52.8074,-66.39123 h -26.4036 z" />
        <path
           id="path28-2"
           style="display:inline;fill:#000000;fill-opacity:1;stroke:none;stroke-width:2.09091;stroke-dasharray:none;stroke-opacity:1"
           d="m 1111.754,184.8451 -52.8074,66.39123 h 26.4017 26.4036 l 52.8074,-66.39123 h -26.4036 z" />
        <path
           id="path29-1"
           style="display:inline;fill:#ffffff;fill-opacity:1;stroke:none;stroke-width:2.09091;stroke-dasharray:none;stroke-opacity:1"
           d="m 1058.9467,184.8451 -52.8074,66.39123 h 26.4037 26.4036 l 52.8053,-66.39123 h -26.4017 z" />
        <path
           id="path30-1"
           style="display:inline;fill:#000000;fill-opacity:1;stroke:none;stroke-width:3.57121;stroke-dasharray:none;stroke-opacity:1"
           d="m 941.51111,185.28446 -52.1066,65.51226 h 39.0284 39.0284 39.02829 l 52.1066,-65.51226 h -39.0284 -39.02839 z" />
      </g>
      <path
         id="path62"
         style="display:inline;fill:none;stroke:#000000;stroke-width:15"
         d="m 931.35752,251.23587 h 439.99998 v -25 c 0,-22.16 -17.84,-40 -40,-40 H 971.35752 c -22.16,0 -40,17.84 -40,40 z"
         inkscape:label="Clapper-outline"
         transform="matrix(1.5746963,0,0,1.5746963,-1384.6138,-88.331297)" />
      <g
         id="g54"
         inkscape:label="VT_LOGO"
         transform="matrix(1.3755159,0,0,1.3755159,289.82802,877.67322)"
         style="display:inline;fill:#6f42c1;fill-opacity:1">
        <g
           id="g51"
           inkscape:label="LOGO_MAIN"
           style="display:inline;fill:#6f42c1;fill-opacity:1;stroke:none">
          <path
             id="path50"
             style="fill:#6f42c1;fill-opacity:1;stroke:none;stroke-width:4;stroke-dasharray:none;stroke-opacity:1"
             d="m 235.26172,-335.08398 c -1.08637,0.0269 -2.16985,0.1651 -3.22461,0.42578 -2.60214,0.6431 -5.02485,2.35723 -10.32422,7.30468 -5.02328,4.6897 -10.31135,8.50172 -19.25586,13.87891 -16.0593,9.65442 -15.84646,9.56183 -18.73828,8.06641 -1.27978,-0.6618 -4.61828,-1.60231 -7.41797,-2.08985 -6.41479,-1.11709 -10.86839,-0.0582 -14.32812,3.40625 -2.29507,2.29825 -2.49491,2.94029 -2.88868,9.27735 -0.60384,9.71802 -1.1874,10.44947 -14.6621,18.37304 -41.12553,24.18314 -41.10064,24.16952 -50.582036,27.19532 -7.96928,2.54323 -9.635546,3.37922 -12.603516,6.32812 -3.30754,3.28629 -3.407155,3.52736 -3.041016,7.33789 0.421071,4.38212 3.093912,8.39482 7.707032,11.57227 2.23927,1.54237 3.342311,1.77204 6.957031,1.44922 6.7935,-0.60672 10.490675,-2.57022 23.828125,-12.65821 25.77535,-19.4956 33.85911,-24.58466 39.07617,-24.60156 3.56865,-0.0116 7.529,2.50573 9.32227,5.92383 1.50406,2.86685 1.61719,4.62802 1.85547,28.83398 0.18417,18.71029 -0.12699,31.56659 -1.13477,46.875 -1.72455,26.19653 -1.94095,61.92651 -0.40234,66.2793 3.53649,10.00485 15.51078,14.704587 25.11132,9.85547 3.30153,-1.66756 6.68034,-5.1137 7.625,-7.77539 1.12797,-3.17814 -0.25611,-104.38481 -1.63476,-119.53125 -0.64533,-7.08984 -1.27329,-22.51269 -1.39648,-34.27344 l -0.22461,-21.38281 5.43359,-3.1211 c 40.20798,-23.09557 50.35351,-30.32503 50.35352,-35.88085 0,-6.04143 -7.80559,-11.25638 -15.41016,-11.06836 z" />
          <path
             id="path51"
             style="fill:#6f42c1;fill-opacity:1;stroke:none;stroke-width:4;stroke-dasharray:none;stroke-opacity:1"
             d="m 109.44922,-357.12109 c -9.965773,0.14966 -20.825654,6.07218 -28.406251,15.7832 -4.02908,5.16139 -31.47308,47.16075 -38.96875,59.63672 -10.35457,17.23441 -18.113377,33.3493 -29.716797,61.71875 -1.84535,4.51172 -4.0201614,9.16591 -4.8320314,10.3418 -2.73022,3.95429 -9.1310912,4.14235 -12.8945312,0.3789 -2.1122,-2.1122 -2.3840522,-3.60705 -5.6953124,-31.23047 -2.65208,-22.12441 -3.687813,-27.0957 -6.845703,-32.88281 -2.72079,-4.98608 -5.959932,-6.76911 -12.263672,-6.74609 -7.72898,0.0282 -13.800255,3.50409 -16.990234,9.72656 -3.74245,7.30014 -2.276071,18.85759 5.255859,41.42773 5.92275,17.74808 29.755514,79.10513 32.1152342,82.67969 1.17292,1.77676 3.3024707,3.59306 5.2441407,4.47461 4.33848994,1.96974 13.1406434,2.04811 16.9394531,0.15039 4.35956,-2.17784 7.136685,-7.35276 12.296875,-22.92187 7.87471,-23.75927 27.588573,-71.73074 36.095703,-87.83399 16.5225,-31.27563 29.791888,-47.39605 51.351567,-62.38672 11.51652,-8.00756 14.667,-13.17302 14.65039,-24.01562 -0.0172,-11.20912 -3.89525,-16.52845 -13.13086,-18.00586 -1.37505,-0.21997 -2.7814,-0.3163 -4.20508,-0.29492 z" />
        </g>
        <g
           id="g53"
           style="display:inline;fill:#000000;fill-opacity:1;stroke:none"
           inkscape:label="LOGO_OUTLINE">
          <path
             id="path52"
             style="fill:#000000;fill-opacity:1;stroke:none;stroke-width:4;stroke-dasharray:none;stroke-opacity:1"
             d="m 236.625,-341.07617 c -7.32876,0 -10.86631,1.72065 -19.00586,9.24414 -5.39675,4.98829 -10.46578,8.63541 -19.25,13.84961 l -11.92578,7.07812 -4.01758,-1.38867 c -2.44584,-0.8453 -6.31239,-1.39148 -9.8789,-1.39648 -12.89162,-0.0184 -19.53126,6.60361 -19.53126,19.48047 0,2.41801 -0.43945,4.9616 -0.97656,5.65234 -1.11944,1.43966 -41.96051,25.59797 -50.19531,29.69141 -3.007815,1.49515 -8.100899,3.50933 -11.318359,4.47461 -7.8203,2.34615 -10.907143,4.01329 -14.226563,7.6875 -6.40501,7.08959 -5.864978,15.53193 1.513672,23.69921 5.00175,5.53635 10.329679,7.39671 17.693359,6.17579 7.008161,-1.16198 13.118851,-4.49643 24.898441,-13.58594 14.40893,-11.1184 27.77408,-20.50712 31.26758,-21.9668 4.81098,-2.01015 6.70483,-1.61149 8.2207,1.73438 1.17902,2.60227 1.31114,6.07283 1.18945,31.05468 -0.0783,16.07307 -0.66439,35.65746 -1.36719,45.70313 -2.77267,39.63188 -2.45696,58.1177 1.12891,66.23633 2.63738,5.9712 7.87346,10.481 14.82813,12.76757 3.61268,1.18778 13.39859,0.30227 16.9707,-1.53515 8.46485,-4.35414 12.24318,-10.33533 12.12304,-19.19531 -0.0413,-3.04567 -0.21635,-26.28125 -0.38867,-51.63282 -0.24168,-35.55594 -0.60913,-48.94018 -1.60742,-58.54492 -0.71179,-6.84823 -1.52895,-22.1598 -1.81641,-34.02734 l -0.52343,-21.57813 8.1289,-4.59375 c 14.12831,-7.98518 36.12305,-21.5276 39.65625,-24.41601 7.0597,-5.77135 9.74166,-11.63541 7.99219,-17.47461 -2.08927,-6.97339 -11.32049,-13.19336 -19.58203,-13.19336 z m -1.36328,5.99219 c 7.60457,-0.18802 15.41016,5.02693 15.41016,11.06836 -10e-6,5.55582 -10.14554,12.78528 -50.35352,35.88085 l -5.43359,3.1211 0.22461,21.38281 c 0.12319,11.76075 0.75115,27.1836 1.39648,34.27344 1.37865,15.14644 2.76273,116.35311 1.63476,119.53125 -0.94466,2.66169 -4.32347,6.10783 -7.625,7.77539 -9.60054,4.84912 -21.57483,0.14938 -25.11132,-9.85547 -1.53861,-4.35279 -1.32221,-40.08277 0.40234,-66.2793 1.00778,-15.30841 1.31894,-28.16471 1.13477,-46.875 -0.23828,-24.20596 -0.35141,-25.96713 -1.85547,-28.83398 -1.79327,-3.4181 -5.75362,-5.93543 -9.32227,-5.92383 -5.21706,0.0169 -13.30082,5.10596 -39.07617,24.60156 -13.33745,10.08799 -17.034625,12.05149 -23.828125,12.65821 -3.61472,0.32282 -4.717761,0.0932 -6.957031,-1.44922 -4.61312,-3.17745 -7.285961,-7.19015 -7.707032,-11.57227 -0.366139,-3.81053 -0.266524,-4.0516 3.041016,-7.33789 2.96797,-2.9489 4.634236,-3.78489 12.603516,-6.32812 9.481396,-3.0258 9.456506,-3.01218 50.582036,-27.19532 13.4747,-7.92357 14.05826,-8.65502 14.6621,-18.37304 0.39377,-6.33706 0.59361,-6.9791 2.88868,-9.27735 3.45973,-3.46447 7.91333,-4.52334 14.32812,-3.40625 2.79969,0.48754 6.13819,1.42805 7.41797,2.08985 2.89182,1.49542 2.67898,1.58801 18.73828,-8.06641 8.94451,-5.37719 14.23258,-9.18921 19.25586,-13.87891 5.29937,-4.94745 7.72208,-6.66158 10.32422,-7.30468 1.05476,-0.26068 2.13824,-0.39893 3.22461,-0.42578 z" />
          <path
             id="path53"
             style="fill:#000000;fill-opacity:1;stroke:none;stroke-width:4;stroke-dasharray:none;stroke-opacity:1"
             d="m 110.11914,-362.93164 c -12.535504,0.0465 -22.808394,5.27054 -32.609374,16.58398 -4.23433,4.88777 -30.541229,44.86354 -40.699219,61.84571 -8.60963,14.39365 -19.69111,36.78458 -25.9375,52.41015 -7.0845498,17.72224 -8.3263138,20.07715 -10.43359388,19.77735 -2.11199992,-0.30046 -2.07808432,-0.12536 -5.61523432,-29.25977 -3.01574,-24.83981 -4.9169698,-32.35008 -9.5624998,-37.77734 -5.65118,-6.60213 -13.831778,-8.51092 -23.673828,-5.52149 -7.2449,2.20057 -13.003562,7.53342 -15.263672,14.13477 -3.09217,9.03166 -1.621457,20.22566 5.533203,42.11719 5.14083,15.72969 30.449621,81.02225 32.988281,85.10351 2.65646,4.27066 5.079339,6.11535 10.4746095,7.97852 7.95593,2.74744 18.4342425,1.33765 23.5703125,-3.17188 3.86998,-3.39789 6.435333,-8.79726 11.820313,-24.86914 5.256029,-15.68699 21.797288,-57.29056 29.324218,-73.7539 5.52738,-12.08981 14.005385,-27.19762 20.953125,-37.33594 10.75498,-15.69393 18.833334,-24.08725 31.792969,-33.03516 9.13605,-6.30793 14.42608,-11.64105 17.25195,-17.39648 2.1189,-4.31554 2.2793,-5.2848 2.2793,-13.63086 0,-8.23911 -0.1781,-9.35043 -2.16602,-13.39844 -3.65402,-7.44074 -9.95447,-10.83818 -20.02734,-10.80078 z m -0.66992,5.81055 c 1.42368,-0.0214 2.83003,0.075 4.20508,0.29492 9.23561,1.47741 13.11366,6.79674 13.13086,18.00586 0.0166,10.8426 -3.13387,16.00806 -14.65039,24.01562 -21.559679,14.99067 -34.829067,31.11109 -51.351567,62.38672 -8.50713,16.10325 -28.220993,64.07472 -36.095703,87.83399 -5.16019,15.56911 -7.937315,20.74403 -12.296875,22.92187 -3.7988097,1.89772 -12.60096316,1.81935 -16.9394531,-0.15039 -1.94167,-0.88155 -4.0712207,-2.69785 -5.2441407,-4.47461 -2.3597202,-3.57456 -26.1924842,-64.93161 -32.1152342,-82.67969 -7.53193,-22.57014 -8.998309,-34.12759 -5.255859,-41.42773 3.189979,-6.22247 9.261254,-9.69836 16.990234,-9.72656 6.30374,-0.023 9.542882,1.76001 12.263672,6.74609 3.15789,5.78711 4.193623,10.7584 6.845703,32.88281 3.3112602,27.62342 3.5831124,29.11827 5.6953124,31.23047 3.76344,3.76345 10.1643112,3.57539 12.8945312,-0.3789 0.81187,-1.17589 2.9866814,-5.83008 4.8320314,-10.3418 11.60342,-28.36945 19.362227,-44.48434 29.716797,-61.71875 7.49567,-12.47597 34.93967,-54.47533 38.96875,-59.63672 7.580597,-9.71102 18.440478,-15.63354 28.406251,-15.7832 z"
             sodipodi:nodetypes="sssssssssssssssssssssssssssssssssssssssss" />
        </g>
      </g>
    </g>
    <g
       inkscape:groupmode="layer"
       id="g19"
       inkscape:label="VT_Logo"
       transform="matrix(0.84083157,0,0,0.84083157,1115.4942,81.494237)">
      <path
         id="path2"
         style="baseline-shift:baseline;display:inline;overflow:visible;opacity:1;vector-effect:none;fill:#ffffff;enable-background:accumulate;stop-color:#000000;stop-opacity:1"
         d="m 969.79883,173.54102 c -28.17111,0 -51.13672,23.12184 -51.13672,51.34765 v 25.2168 287.47851 c 0,28.22583 22.96561,51.34766 51.13672,51.34766 H 1331.041 c 4.3492,0 8.5976,-0.54561 12.6563,-1.57812 l 0.033,-0.006 c 0.687,-0.1344 1.3689,-0.28189 2.0449,-0.44336 l 0.7305,-0.15821 c 0.9602,-0.18722 1.9169,-0.38219 2.8515,-0.62109 0.6851,-0.13403 1.363,-0.28065 2.0352,-0.44141 l 0.789,-0.17187 c 0.67,-0.13096 1.3365,-0.27548 2,-0.4336 l 0.7969,-0.17382 c 0.6813,-0.13316 1.3569,-0.27962 2.0254,-0.43946 l 0.625,-0.13476 c 0.058,-0.0147 0.1195,-0.0241 0.1777,-0.0391 0.6683,-0.13037 1.3337,-0.27386 1.9961,-0.43164 l 0.1895,-0.041 c 0.8895,-0.16174 1.7638,-0.3641 2.6348,-0.57227 l 0.4238,-0.0918 c 0.1274,-0.0316 0.2597,-0.0514 0.3867,-0.084 0.672,-0.131 1.3414,-0.27643 2.0078,-0.43554 l 0.8145,-0.17579 c 0.6661,-0.13027 1.3268,-0.27492 1.9824,-0.43164 l 0.8203,-0.17773 c 0.669,-0.13048 1.3335,-0.27573 1.9941,-0.43359 l 0.8243,-0.17774 c 0.6717,-0.1313 1.3362,-0.27593 1.9941,-0.43359 l 0.2832,-0.0625 c 0.8476,-0.15535 1.6845,-0.34574 2.5176,-0.54492 1.1821,-0.20879 2.3503,-0.46239 3.5019,-0.75586 0.9026,-0.173 1.804,-0.35555 2.6934,-0.58008 0.7517,-0.1423 1.4907,-0.3085 2.2246,-0.48438 l 0.8496,-0.18359 c 0.659,-0.12808 1.3157,-0.26923 1.9707,-0.42578 l 0.6465,-0.14063 c 1.0202,-0.19481 2.034,-0.40231 3.0137,-0.65625 0.6555,-0.12746 1.3088,-0.2683 1.959,-0.42382 l 0.83,-0.17969 c 0.6533,-0.12678 1.3019,-0.26974 1.9473,-0.42383 l 0.248,-0.0527 c 0.2069,-0.0506 0.4191,-0.0833 0.625,-0.13671 0.8128,-0.15783 1.6262,-0.3161 2.4258,-0.50977 0.7929,-0.15305 1.5764,-0.33973 2.3594,-0.52734 l 0.1387,-0.0293 c 0.8986,-0.15966 1.778,-0.36763 2.6562,-0.57812 l 0.8906,-0.19336 c 0.6501,-0.12664 1.2939,-0.26678 1.9317,-0.41993 l 0.8926,-0.19336 c 0.6392,-0.1246 1.2732,-0.26326 1.9023,-0.41406 l 0.877,-0.18945 c 0.01,-0.002 0.016,-0.004 0.023,-0.006 0.6424,-0.12495 1.2799,-0.26245 1.9121,-0.41406 l 0.9063,-0.19727 c 0.644,-0.12536 1.2831,-0.26399 1.916,-0.41601 l 0.9101,-0.19727 c 0.6334,-0.12338 1.2615,-0.26066 1.8848,-0.41016 l 0.2773,-0.0605 c 0.2113,-0.0521 0.4306,-0.0836 0.6407,-0.13867 0.636,-0.12326 1.2703,-0.26076 1.9023,-0.41211 0.9465,-0.1633 1.8704,-0.38555 2.7949,-0.60743 l 0.9317,-0.20117 c 0.6321,-0.12287 1.2589,-0.25892 1.8808,-0.4082 l 0.3184,-0.0703 c 0.8477,-0.15217 1.6752,-0.34459 2.5,-0.54297 0.9462,-0.16242 1.8723,-0.38508 2.7988,-0.60742 l 0.834,-0.18165 c 0.037,-0.01 0.076,-0.0136 0.1133,-0.0234 0.6185,-0.11977 1.2348,-0.25333 1.8496,-0.40039 l 0.957,-0.20703 c 0.6283,-0.12207 1.2487,-0.25839 1.8633,-0.40625 l 0.9629,-0.20899 c 0.6205,-0.12059 1.2346,-0.25401 1.8437,-0.40039 l 0.9708,-0.21094 c 0.6233,-0.12085 1.2414,-0.25476 1.8554,-0.40234 l 0.9746,-0.21094 c 0.6123,-0.11881 1.2209,-0.25123 1.8262,-0.39648 l 0.9824,-0.21289 c 0.6144,-0.11905 1.2249,-0.25263 1.8321,-0.39844 l 0.9902,-0.21484 c 0.6069,-0.11771 1.2105,-0.24856 1.8105,-0.39258 l 0.9981,-0.2168 c 0.6089,-0.11825 1.2122,-0.24868 1.8105,-0.39258 l 0.016,-0.004 c 19.8377,-3.34798 34.8535,-20.76956 34.8535,-41.45118 V 300.54102 281.14258 c 0,-16.14107 -9.1108,-30.32729 -22.5782,-37.33399 -0.7282,-0.43991 -1.4815,-0.84595 -2.2343,-1.25195 l -0.9727,-0.55469 c -0.5785,-0.34924 -1.166,-0.6852 -1.7637,-1.00781 l -0.9668,-0.55273 c -0.5852,-0.35378 -1.1807,-0.6941 -1.7871,-1.02149 l -0.9609,-0.54883 c -0.5876,-0.35463 -1.183,-0.69559 -1.7871,-1.02148 l -0.9531,-0.54492 c -0.5957,-0.35944 -1.1991,-0.70373 -1.8106,-1.03321 l -0.9472,-0.54101 c -0.5981,-0.36125 -1.2078,-0.70858 -1.8282,-1.04297 l -0.9453,-0.53906 c -0.5838,-0.35162 -1.1757,-0.6901 -1.7754,-1.01367 l -0.3476,-0.19922 c -0.1988,-0.10492 -0.3855,-0.23215 -0.586,-0.33399 -0.8992,-0.54329 -1.7979,-1.08826 -2.7461,-1.57031 -0.599,-0.36141 -1.2061,-0.70851 -1.8222,-1.04102 l -0.7383,-0.42187 c -0.062,-0.0319 -0.1195,-0.0719 -0.1816,-0.10352 -0.6045,-0.3649 -1.2181,-0.71615 -1.8418,-1.05273 l -0.9141,-0.52149 c -0.6062,-0.36563 -1.2222,-0.71732 -1.8477,-1.05468 l -0.1211,-0.0703 c -0.2674,-0.14316 -0.5181,-0.31135 -0.789,-0.44921 -0.5953,-0.35858 -1.1966,-0.70365 -1.8067,-1.03321 l -0.9004,-0.51367 c -0.6195,-0.37435 -1.2498,-0.73439 -1.8906,-1.08008 -1.0314,-0.65426 -2.0945,-1.27018 -3.1875,-1.84375 -0.7563,-0.45741 -1.5345,-0.88021 -2.3144,-1.30078 l -0.039,-0.0215 c -0.8814,-0.55697 -1.7989,-1.05593 -2.7168,-1.55078 -1.0287,-0.65103 -2.0905,-1.26654 -3.1816,-1.83985 -0.7613,-0.46017 -1.5409,-0.88351 -2.3223,-1.30469 l -0.8691,-0.49609 c -0.5982,-0.36068 -1.2071,-0.71018 -1.8282,-1.04687 l -0.3105,-0.17774 c -0.8174,-0.50889 -1.6621,-0.97581 -2.5117,-1.43359 l -0.8574,-0.48828 c -0.6114,-0.36748 -1.231,-0.72115 -1.8594,-1.06055 l -0.8496,-0.48633 c -0.6178,-0.37203 -1.2442,-0.72904 -1.8789,-1.07226 l -0.8457,-0.48438 c -0.6382,-0.38487 -1.2861,-0.75454 -1.9434,-1.10937 l -0.8398,-0.47852 c -0.6161,-0.37072 -1.2385,-0.72801 -1.8711,-1.07031 l -0.8321,-0.47461 c -0.6373,-0.38491 -1.2881,-0.75663 -1.9511,-1.11524 l -0.8321,-0.47656 c -0.6312,-0.37962 -1.2688,-0.74339 -1.914,-1.0918 l -0.068,-0.0391 c -0.8645,-0.54228 -1.766,-1.03626 -2.6699,-1.52539 l -0.8203,-0.46679 c -0.6359,-0.38293 -1.2789,-0.7526 -1.9317,-1.10547 l -0.8164,-0.46485 c -0.635,-0.38236 -1.279,-0.75048 -1.9316,-1.10351 l -0.8106,-0.46289 c -0.7629,-0.45961 -1.5281,-0.91614 -2.3144,-1.33985 -0.7825,-0.47466 -1.5937,-0.91804 -2.4063,-1.35742 l -0.8027,-0.45898 c -0.6336,-0.38068 -1.2743,-0.74549 -1.9219,-1.09571 l -0.7949,-0.45508 c -0.7656,-0.46105 -1.5348,-0.91852 -2.3242,-1.34374 -0.7834,-0.47525 -1.5908,-0.91751 -2.4004,-1.35547 l -0.7871,-0.44922 c -0.641,-0.38572 -1.2935,-0.75794 -1.957,-1.11719 -0.901,-0.5643 -1.8313,-1.07225 -2.7637,-1.57617 l -0.012,-0.006 c -0.2585,-0.1396 -0.505,-0.30253 -0.7657,-0.4375 -0.6321,-0.38038 -1.2746,-0.74995 -1.9297,-1.10547 l -0.7714,-0.44141 c -0.6662,-0.40112 -1.3417,-0.78668 -2.0254,-1.15625 l -0.2989,-0.16992 c -0.784,-0.48244 -1.5879,-0.93072 -2.3964,-1.36914 l -0.7637,-0.43555 c -0.6704,-0.404 -1.3511,-0.79367 -2.043,-1.16796 -7.8373,-4.89298 -17.1545,-7.71875 -27.0332,-7.71875 z"
         inkscape:label="Clapper_Full-Outline"
         transform="matrix(1.5746963,0,0,1.5746963,-1384.6138,-88.331297)" />
      <path
         id="path3"
         style="display:inline;fill:#4ce870;fill-opacity:1;stroke:#000000;stroke-width:11.3828;stroke-opacity:1"
         d="m 985.70308,186.03008 c -21.54288,0 -38.88601,17.85897 -38.88601,40.04251 v 25.02656 285.30092 c 0,22.18355 17.34313,40.04251 38.88601,40.04251 h 349.97362 c 3.3367,0 6.5728,-0.42725 9.6589,-1.2337 0.9232,-0.16949 1.8353,-0.37281 2.7342,-0.60805 0.9164,-0.16838 1.8211,-0.3706 2.7133,-0.60424 0.9234,-0.16908 1.8336,-0.37239 2.7323,-0.60805 0.9152,-0.16778 1.8205,-0.3687 2.7113,-0.60213 0.9241,-0.16869 1.8351,-0.37211 2.7342,-0.60815 0.9169,-0.16738 1.823,-0.3681 2.7153,-0.60214 0.9243,-0.16828 1.8367,-0.3716 2.7359,-0.60805 0.9226,-0.16798 1.8333,-0.3699 2.7305,-0.60614 0.9178,-0.16718 1.8225,-0.369 2.7152,-0.60414 0.9217,-0.16738 1.8321,-0.3698 2.7284,-0.60614 0.9227,-0.16738 1.8335,-0.37121 2.7304,-0.60805 0.9184,-0.16658 1.8243,-0.3683 2.7171,-0.60414 0.883,-0.15977 1.7554,-0.35258 2.6145,-0.57682 0.9569,-0.16988 1.9003,-0.3778 2.829,-0.62376 0.9211,-0.16607 1.8281,-0.36899 2.7229,-0.60605 0.9237,-0.16637 1.835,-0.36799 2.7322,-0.60614 0.9186,-0.16547 1.8249,-0.36919 2.7172,-0.60614 0.9231,-0.16577 1.834,-0.36769 2.7304,-0.60605 0.9138,-0.16416 1.8161,-0.36458 2.7037,-0.60023 0.9265,-0.16537 1.8407,-0.36869 2.7398,-0.60815 0.9266,-0.16537 1.839,-0.36809 2.738,-0.60805 0.9185,-0.16416 1.8241,-0.36628 2.7152,-0.60414 0.9245,-0.16466 1.8356,-0.36829 2.7322,-0.60804 0.9184,-0.16377 1.8244,-0.36589 2.7153,-0.60414 0.9228,-0.16387 1.8318,-0.36649 2.7265,-0.60615 0.9245,-0.16396 1.8362,-0.36759 2.7323,-0.60803 0.9189,-0.16308 1.8244,-0.3651 2.7153,-0.60415 0.9246,-0.16347 1.8362,-0.36519 2.7321,-0.60614 0.9193,-0.16247 1.8247,-0.36449 2.7152,-0.60415 0.9232,-0.16256 1.8324,-0.36529 2.7266,-0.60614 0.9242,-0.16257 1.8355,-0.36659 2.7305,-0.60804 0.92,-0.16177 1.826,-0.36359 2.717,-0.60414 0.9201,-0.16127 1.8265,-0.36169 2.717,-0.60225 0.9258,-0.16156 1.8365,-0.36549 2.7323,-0.60804 0.9229,-0.16107 1.8319,-0.36419 2.7247,-0.60615 0.927,-0.16126 1.8397,-0.36458 2.7362,-0.60803 0.9205,-0.16038 1.8283,-0.3622 2.7188,-0.60415 0.9249,-0.16057 1.8344,-0.36269 2.7285,-0.60614 0.921,-0.15977 1.8287,-0.36149 2.7191,-0.60414 0.9235,-0.15967 1.8321,-0.36259 2.7247,-0.60614 14.1681,-2.4435 24.8941,-15.0698 24.8941,-30.37595 V 301.15229 281.90138 c 0,-12.07887 -6.6839,-22.4904 -16.4675,-27.54291 -0.8583,-0.56339 -1.7453,-1.08309 -2.6602,-1.55633 -0.8559,-0.56138 -1.7408,-1.07998 -2.6526,-1.55244 -0.8594,-0.56383 -1.7482,-1.08548 -2.6639,-1.56024 -0.8585,-0.56257 -1.7462,-1.08192 -2.6601,-1.55635 -0.8617,-0.56437 -1.7542,-1.08599 -2.6716,-1.56221 -0.8658,-0.56624 -1.7594,-1.09016 -2.681,-1.56805 -0.8523,-0.55633 -1.7333,-1.07124 -2.6391,-1.54267 -0.8606,-0.56234 -1.7491,-1.08389 -2.6639,-1.56024 -0.8595,-0.56107 -1.7472,-1.08039 -2.6601,-1.55636 -0.8628,-0.56295 -1.7532,-1.0844 -2.6697,-1.5622 -0.8628,-0.56221 -1.7553,-1.08452 -2.6714,-1.56218 -0.8529,-0.55522 -1.7329,-1.06946 -2.6374,-1.54268 -0.8704,-0.56707 -1.7687,-1.09367 -2.6925,-1.57589 -0.8495,-0.55195 -1.724,-1.06499 -2.6241,-1.53678 -0.8728,-0.56823 -1.7739,-1.09574 -2.6998,-1.57981 -0.8632,-0.55998 -1.7534,-1.07994 -2.6678,-1.5583 -0.8497,-0.55097 -1.7248,-1.06436 -2.6241,-1.53678 -0.8741,-0.56794 -1.7756,-1.09457 -2.7019,-1.5798 -0.8493,-0.55006 -1.7239,-1.06417 -2.6221,-1.53679 -0.8786,-0.57004 -1.7847,-1.1 -2.7151,-1.58763 -0.8547,-0.55209 -1.7341,-1.06588 -2.6374,-1.5407 -0.8576,-0.55462 -1.7406,-1.07122 -2.6469,-1.54851 -0.8714,-0.56397 -1.769,-1.08938 -2.6904,-1.57393 -0.8533,-0.55087 -1.7328,-1.06538 -2.6335,-1.5407 -0.8711,-0.56311 -1.7663,-1.08915 -2.6868,-1.57394 -0.8619,-0.55603 -1.7503,-1.07448 -2.6602,-1.55439 -0.86,-0.5546 -1.7449,-1.07312 -2.6524,-1.55242 -0.8643,-0.55743 -1.752,-1.07648 -2.6639,-1.5583 -0.8626,-0.55585 -1.7504,-1.07527 -2.6601,-1.55634 -0.8646,-0.55692 -1.7543,-1.078 -2.6659,-1.56025 -0.8706,-0.56036 -1.765,-1.08491 -2.6829,-1.57003 -0.8576,-0.55112 -1.7396,-1.06602 -2.6429,-1.5446 -0.8651,-0.55636 -1.7546,-1.07729 -2.666,-1.56026 -0.8679,-0.55785 -1.7591,-1.07974 -2.6734,-1.56416 -0.8622,-0.55335 -1.7486,-1.07299 -2.6563,-1.55438 -0.8678,-0.55682 -1.7599,-1.07783 -2.6733,-1.56221 -0.8548,-0.54795 -1.7311,-1.06256 -2.6298,-1.5407 -0.876,-0.56236 -1.776,-1.08846 -2.698,-1.57784 -0.8514,-0.54492 -1.7261,-1.05637 -2.6204,-1.53288 -0.8786,-0.56372 -1.7811,-1.09256 -2.7056,-1.58371 -5.9547,-3.80822 -12.9922,-6.00442 -20.5463,-6.00442 z"
         inkscape:label="Clapper_Shadow"
         transform="matrix(1.5746963,0,0,1.5746963,-1384.6138,-88.331297)" />
      <path
         id="path4"
         style="fill:#ffffff;stroke:#000000;stroke-width:15"
         d="m 931.35742,251.23633 v 285 c 0,22.16 17.84,40 40,40 h 359.99998 c 22.16,0 40,-17.84 40,-40 v -285 z"
         inkscape:label="Clapper_MAIN"
         transform="matrix(1.5746963,0,0,1.5746963,-1384.6138,-88.331297)" />
      <g
         id="g12"
         mask="url(#mask63)"
         inkscape:label="Clapper-Chequered"
         transform="matrix(1.5746963,0,0,1.5746963,-1384.6138,-88.331297)">
        <path
           id="path5"
           style="display:inline;fill:#ffffff;fill-opacity:1;stroke:none;stroke-width:2.09091;stroke-dasharray:none;stroke-opacity:1"
           d="m 1375.7845,184.8451 -52.8074,66.39123 h 26.4036 26.4036 L 1428.59,184.8451 h -26.4036 z" />
        <path
           id="path6"
           style="display:inline;fill:#000000;fill-opacity:1;stroke:none;stroke-width:2.09091;stroke-dasharray:none;stroke-opacity:1"
           d="m 1322.9792,184.8451 -52.8074,66.39123 h 26.4017 26.4036 l 52.8074,-66.39123 h -26.4036 z" />
        <path
           id="path7"
           style="display:inline;fill:#ffffff;fill-opacity:1;stroke:none;stroke-width:2.09091;stroke-dasharray:none;stroke-opacity:1"
           d="m 1270.1719,184.8451 -52.8074,66.39123 h 26.4037 26.4036 l 52.8074,-66.39123 h -26.4036 z" />
        <path
           id="path8"
           style="display:inline;fill:#000000;fill-opacity:1;stroke:none;stroke-width:2.09091;stroke-dasharray:none;stroke-opacity:1"
           d="m 1217.3666,184.8451 -52.8074,66.39123 h 26.4017 26.4036 l 52.8074,-66.39123 h -26.4036 z" />
        <path
           id="path9"
           style="display:inline;fill:#ffffff;fill-opacity:1;stroke:none;stroke-width:2.09091;stroke-dasharray:none;stroke-opacity:1"
           d="m 1164.5593,184.8451 -52.8074,66.39123 h 26.4037 26.4036 l 52.8074,-66.39123 h -26.4036 z" />
        <path
           id="path10"
           style="display:inline;fill:#000000;fill-opacity:1;stroke:none;stroke-width:2.09091;stroke-dasharray:none;stroke-opacity:1"
           d="m 1111.754,184.8451 -52.8074,66.39123 h 26.4017 26.4036 l 52.8074,-66.39123 h -26.4036 z" />
        <path
           id="path11"
           style="display:inline;fill:#ffffff;fill-opacity:1;stroke:none;stroke-width:2.09091;stroke-dasharray:none;stroke-opacity:1"
           d="m 1058.9467,184.8451 -52.8074,66.39123 h 26.4037 26.4036 l 52.8053,-66.39123 h -26.4017 z" />
        <path
           id="path12"
           style="display:inline;fill:#000000;fill-opacity:1;stroke:none;stroke-width:3.57121;stroke-dasharray:none;stroke-opacity:1"
           d="m 941.51111,185.28446 -52.1066,65.51226 h 39.0284 39.0284 39.02829 l 52.1066,-65.51226 h -39.0284 -39.02839 z" />
      </g>
      <path
         id="path13"
         style="display:inline;fill:none;stroke:#000000;stroke-width:15"
         d="m 931.35752,251.23587 h 439.99998 v -25 c 0,-22.16 -17.84,-40 -40,-40 H 971.35752 c -22.16,0 -40,17.84 -40,40 z"
         inkscape:label="Clapper-outline"
         transform="matrix(1.5746963,0,0,1.5746963,-1384.6138,-88.331297)" />
      <g
         id="g18"
         inkscape:label="VT_LOGO"
         transform="matrix(1.3755159,0,0,1.3755159,289.82802,877.67322)"
         style="display:inline;fill:#6f42c1;fill-opacity:1">
        <g
           id="g15"
           inkscape:label="LOGO_MAIN"
           style="display:inline;fill:#6f42c1;fill-opacity:1;stroke:none">
          <path
             id="path14"
             style="fill:#6f42c1;fill-opacity:1;stroke:none;stroke-width:4;stroke-dasharray:none;stroke-opacity:1"
             d="m 235.26172,-335.08398 c -1.08637,0.0269 -2.16985,0.1651 -3.22461,0.42578 -2.60214,0.6431 -5.02485,2.35723 -10.32422,7.30468 -5.02328,4.6897 -10.31135,8.50172 -19.25586,13.87891 -16.0593,9.65442 -15.84646,9.56183 -18.73828,8.06641 -1.27978,-0.6618 -4.61828,-1.60231 -7.41797,-2.08985 -6.41479,-1.11709 -10.86839,-0.0582 -14.32812,3.40625 -2.29507,2.29825 -2.49491,2.94029 -2.88868,9.27735 -0.60384,9.71802 -1.1874,10.44947 -14.6621,18.37304 -41.12553,24.18314 -41.10064,24.16952 -50.582036,27.19532 -7.96928,2.54323 -9.635546,3.37922 -12.603516,6.32812 -3.30754,3.28629 -3.407155,3.52736 -3.041016,7.33789 0.421071,4.38212 3.093912,8.39482 7.707032,11.57227 2.23927,1.54237 3.342311,1.77204 6.957031,1.44922 6.7935,-0.60672 10.490675,-2.57022 23.828125,-12.65821 25.77535,-19.4956 33.85911,-24.58466 39.07617,-24.60156 3.56865,-0.0116 7.529,2.50573 9.32227,5.92383 1.50406,2.86685 1.61719,4.62802 1.85547,28.83398 0.18417,18.71029 -0.12699,31.56659 -1.13477,46.875 -1.72455,26.19653 -1.94095,61.92651 -0.40234,66.2793 3.53649,10.00485 15.51078,14.704587 25.11132,9.85547 3.30153,-1.66756 6.68034,-5.1137 7.625,-7.77539 1.12797,-3.17814 -0.25611,-104.38481 -1.63476,-119.53125 -0.64533,-7.08984 -1.27329,-22.51269 -1.39648,-34.27344 l -0.22461,-21.38281 5.43359,-3.1211 c 40.20798,-23.09557 50.35351,-30.32503 50.35352,-35.88085 0,-6.04143 -7.80559,-11.25638 -15.41016,-11.06836 z" />
          <path
             id="path15"
             style="fill:#6f42c1;fill-opacity:1;stroke:none;stroke-width:4;stroke-dasharray:none;stroke-opacity:1"
             d="m 109.44922,-357.12109 c -9.965773,0.14966 -20.825654,6.07218 -28.406251,15.7832 -4.02908,5.16139 -31.47308,47.16075 -38.96875,59.63672 -10.35457,17.23441 -18.113377,33.3493 -29.716797,61.71875 -1.84535,4.51172 -4.0201614,9.16591 -4.8320314,10.3418 -2.73022,3.95429 -9.1310912,4.14235 -12.8945312,0.3789 -2.1122,-2.1122 -2.3840522,-3.60705 -5.6953124,-31.23047 -2.65208,-22.12441 -3.687813,-27.0957 -6.845703,-32.88281 -2.72079,-4.98608 -5.959932,-6.76911 -12.263672,-6.74609 -7.72898,0.0282 -13.800255,3.50409 -16.990234,9.72656 -3.74245,7.30014 -2.276071,18.85759 5.255859,41.42773 5.92275,17.74808 29.755514,79.10513 32.1152342,82.67969 1.17292,1.77676 3.3024707,3.59306 5.2441407,4.47461 4.33848994,1.96974 13.1406434,2.04811 16.9394531,0.15039 4.35956,-2.17784 7.136685,-7.35276 12.296875,-22.92187 7.87471,-23.75927 27.588573,-71.73074 36.095703,-87.83399 16.5225,-31.27563 29.791888,-47.39605 51.351567,-62.38672 11.51652,-8.00756 14.667,-13.17302 14.65039,-24.01562 -0.0172,-11.20912 -3.89525,-16.52845 -13.13086,-18.00586 -1.37505,-0.21997 -2.7814,-0.3163 -4.20508,-0.29492 z" />
        </g>
        <g
           id="g17"
           style="display:inline;fill:#000000;fill-opacity:1;stroke:none"
           inkscape:label="LOGO_OUTLINE">
          <path
             id="path16"
             style="fill:#000000;fill-opacity:1;stroke:none;stroke-width:4;stroke-dasharray:none;stroke-opacity:1"
             d="m 236.625,-341.07617 c -7.32876,0 -10.86631,1.72065 -19.00586,9.24414 -5.39675,4.98829 -10.46578,8.63541 -19.25,13.84961 l -11.92578,7.07812 -4.01758,-1.38867 c -2.44584,-0.8453 -6.31239,-1.39148 -9.8789,-1.39648 -12.89162,-0.0184 -19.53126,6.60361 -19.53126,19.48047 0,2.41801 -0.43945,4.9616 -0.97656,5.65234 -1.11944,1.43966 -41.96051,25.59797 -50.19531,29.69141 -3.007815,1.49515 -8.100899,3.50933 -11.318359,4.47461 -7.8203,2.34615 -10.907143,4.01329 -14.226563,7.6875 -6.40501,7.08959 -5.864978,15.53193 1.513672,23.69921 5.00175,5.53635 10.329679,7.39671 17.693359,6.17579 7.008161,-1.16198 13.118851,-4.49643 24.898441,-13.58594 14.40893,-11.1184 27.77408,-20.50712 31.26758,-21.9668 4.81098,-2.01015 6.70483,-1.61149 8.2207,1.73438 1.17902,2.60227 1.31114,6.07283 1.18945,31.05468 -0.0783,16.07307 -0.66439,35.65746 -1.36719,45.70313 -2.77267,39.63188 -2.45696,58.1177 1.12891,66.23633 2.63738,5.9712 7.87346,10.481 14.82813,12.76757 3.61268,1.18778 13.39859,0.30227 16.9707,-1.53515 8.46485,-4.35414 12.24318,-10.33533 12.12304,-19.19531 -0.0413,-3.04567 -0.21635,-26.28125 -0.38867,-51.63282 -0.24168,-35.55594 -0.60913,-48.94018 -1.60742,-58.54492 -0.71179,-6.84823 -1.52895,-22.1598 -1.81641,-34.02734 l -0.52343,-21.57813 8.1289,-4.59375 c 14.12831,-7.98518 36.12305,-21.5276 39.65625,-24.41601 7.0597,-5.77135 9.74166,-11.63541 7.99219,-17.47461 -2.08927,-6.97339 -11.32049,-13.19336 -19.58203,-13.19336 z m -1.36328,5.99219 c 7.60457,-0.18802 15.41016,5.02693 15.41016,11.06836 -10e-6,5.55582 -10.14554,12.78528 -50.35352,35.88085 l -5.43359,3.1211 0.22461,21.38281 c 0.12319,11.76075 0.75115,27.1836 1.39648,34.27344 1.37865,15.14644 2.76273,116.35311 1.63476,119.53125 -0.94466,2.66169 -4.32347,6.10783 -7.625,7.77539 -9.60054,4.84912 -21.57483,0.14938 -25.11132,-9.85547 -1.53861,-4.35279 -1.32221,-40.08277 0.40234,-66.2793 1.00778,-15.30841 1.31894,-28.16471 1.13477,-46.875 -0.23828,-24.20596 -0.35141,-25.96713 -1.85547,-28.83398 -1.79327,-3.4181 -5.75362,-5.93543 -9.32227,-5.92383 -5.21706,0.0169 -13.30082,5.10596 -39.07617,24.60156 -13.33745,10.08799 -17.034625,12.05149 -23.828125,12.65821 -3.61472,0.32282 -4.717761,0.0932 -6.957031,-1.44922 -4.61312,-3.17745 -7.285961,-7.19015 -7.707032,-11.57227 -0.366139,-3.81053 -0.266524,-4.0516 3.041016,-7.33789 2.96797,-2.9489 4.634236,-3.78489 12.603516,-6.32812 9.481396,-3.0258 9.456506,-3.01218 50.582036,-27.19532 13.4747,-7.92357 14.05826,-8.65502 14.6621,-18.37304 0.39377,-6.33706 0.59361,-6.9791 2.88868,-9.27735 3.45973,-3.46447 7.91333,-4.52334 14.32812,-3.40625 2.79969,0.48754 6.13819,1.42805 7.41797,2.08985 2.89182,1.49542 2.67898,1.58801 18.73828,-8.06641 8.94451,-5.37719 14.23258,-9.18921 19.25586,-13.87891 5.29937,-4.94745 7.72208,-6.66158 10.32422,-7.30468 1.05476,-0.26068 2.13824,-0.39893 3.22461,-0.42578 z" />
          <path
             id="path17"
             style="fill:#000000;fill-opacity:1;stroke:none;stroke-width:4;stroke-dasharray:none;stroke-opacity:1"
             d="m 110.11914,-362.93164 c -12.535504,0.0465 -22.808394,5.27054 -32.609374,16.58398 -4.23433,4.88777 -30.541229,44.86354 -40.699219,61.84571 -8.60963,14.39365 -19.69111,36.78458 -25.9375,52.41015 -7.0845498,17.72224 -8.3263138,20.07715 -10.43359388,19.77735 -2.11199992,-0.30046 -2.07808432,-0.12536 -5.61523432,-29.25977 -3.01574,-24.83981 -4.9169698,-32.35008 -9.5624998,-37.77734 -5.65118,-6.60213 -13.831778,-8.51092 -23.673828,-5.52149 -7.2449,2.20057 -13.003562,7.53342 -15.263672,14.13477 -3.09217,9.03166 -1.621457,20.22566 5.533203,42.11719 5.14083,15.72969 30.449621,81.02225 32.988281,85.10351 2.65646,4.27066 5.079339,6.11535 10.4746095,7.97852 7.95593,2.74744 18.4342425,1.33765 23.5703125,-3.17188 3.86998,-3.39789 6.435333,-8.79726 11.820313,-24.86914 5.256029,-15.68699 21.797288,-57.29056 29.324218,-73.7539 5.52738,-12.08981 14.005385,-27.19762 20.953125,-37.33594 10.75498,-15.69393 18.833334,-24.08725 31.792969,-33.03516 9.13605,-6.30793 14.42608,-11.64105 17.25195,-17.39648 2.1189,-4.31554 2.2793,-5.2848 2.2793,-13.63086 0,-8.23911 -0.1781,-9.35043 -2.16602,-13.39844 -3.65402,-7.44074 -9.95447,-10.83818 -20.02734,-10.80078 z m -0.66992,5.81055 c 1.42368,-0.0214 2.83003,0.075 4.20508,0.29492 9.23561,1.47741 13.11366,6.79674 13.13086,18.00586 0.0166,10.8426 -3.13387,16.00806 -14.65039,24.01562 -21.559679,14.99067 -34.829067,31.11109 -51.351567,62.38672 -8.50713,16.10325 -28.220993,64.07472 -36.095703,87.83399 -5.16019,15.56911 -7.937315,20.74403 -12.296875,22.92187 -3.7988097,1.89772 -12.60096316,1.81935 -16.9394531,-0.15039 -1.94167,-0.88155 -4.0712207,-2.69785 -5.2441407,-4.47461 -2.3597202,-3.57456 -26.1924842,-64.93161 -32.1152342,-82.67969 -7.53193,-22.57014 -8.998309,-34.12759 -5.255859,-41.42773 3.189979,-6.22247 9.261254,-9.69836 16.990234,-9.72656 6.30374,-0.023 9.542882,1.76001 12.263672,6.74609 3.15789,5.78711 4.193623,10.7584 6.845703,32.88281 3.3112602,27.62342 3.5831124,29.11827 5.6953124,31.23047 3.76344,3.76345 10.1643112,3.57539 12.8945312,-0.3789 0.81187,-1.17589 2.9866814,-5.83008 4.8320314,-10.3418 11.60342,-28.36945 19.362227,-44.48434 29.716797,-61.71875 7.49567,-12.47597 34.93967,-54.47533 38.96875,-59.63672 7.580597,-9.71102 18.440478,-15.63354 28.406251,-15.7832 z"
             sodipodi:nodetypes="sssssssssssssssssssssssssssssssssssssssss" />
        </g>
      </g>
    </g>
  </g>
</svg>
