<svg xmlns="http://www.w3.org/2000/svg" viewBox="0 0 256 128">
  <rect width="256" height="128" fill="#003da5"/>
  <rect x="107" width="42" height="128" fill="#ffffff"/>
  <rect y="43" width="256" height="42" fill="#ffffff"/>
  <path fill="#ffffff" transform="translate(54,22)" d="M0,-16 L-4,-8 L-18,-4 L-8,4 L-5,14 L0,10 L5,14 L8,4 L18,-4 L4,-8 Z M-5,10 H5 V18 H-5 Z"/>
  <path fill="#ffffff" transform="translate(202,22)" d="M0,-16 L-4,-8 L-18,-4 L-8,4 L-5,14 L0,10 L5,14 L8,4 L18,-4 L4,-8 Z M-5,10 H5 V18 H-5 Z"/>
  <path fill="#ffffff" transform="translate(54,106)" d="M0,-16 L-4,-8 L-18,-4 L-8,4 L-5,14 L0,10 L5,14 L8,4 L18,-4 L4,-8 Z M-5,10 H5 V18 H-5 Z"/>
  <path fill="#ffffff" transform="translate(202,106)" d="M0,-16 L-4,-8 L-18,-4 L-8,4 L-5,14 L0,10 L5,14 L8,4 L18,-4 L4,-8 Z M-5,10 H5 V18 H-5 Z"/>
</svg>
