<svg xmlns="http://www.w3.org/2000/svg" height="24px" viewBox="0 -960 960 960" width="24px" fill="#e3e3e3"><path d="M202.87-111.87q-37.54 0-64.27-26.73-26.73-26.73-26.73-64.27v-554.26q0-37.54 26.73-64.27 26.73-26.73 64.27-26.73h160.11q14.67-36.48 46.37-58.24 31.69-21.76 70.65-21.76 38.96 0 70.65 21.76 31.7 21.76 46.37 58.24h160.11q37.54 0 64.27 26.73 26.73 26.73 26.73 64.27v554.26q0 37.54-26.73 64.27-26.73 26.73-64.27 26.73H202.87Zm80-171h276.41v-80H282.87v80Zm0-157.13h394.26v-80H282.87v80Zm0-157.13h394.26v-80H282.87v80Zm219.95-200.05q9.09-9.1 9.09-22.82t-9.09-22.82q-9.1-9.09-22.82-9.09t-22.82 9.09q-9.09 9.1-9.09 22.82t9.09 22.82q9.1 9.09 22.82 9.09t22.82-9.09Z"/></svg>