<svg xmlns="http://www.w3.org/2000/svg" height="24px" viewBox="0 -960 960 960" width="24px" fill="#e3e3e3"><path d="M309.93-292.93q11.5-11.5 11.5-28.5t-11.5-28.5q-11.5-11.5-28.5-11.5t-28.5 11.5q-11.5 11.5-11.5 28.5t11.5 28.5q11.5 11.5 28.5 11.5t28.5-11.5ZM241.43-440h80v-238.57h-80V-440ZM440-281.43h278.57v-80H440v80ZM440-440h278.57v-80H440v80Zm0-158.57h278.57v-80H440v80Zm-277.13 486.7q-37.78 0-64.39-26.61t-26.61-64.39v-554.26q0-37.78 26.61-64.39t64.39-26.61h634.26q37.78 0 64.39 26.61t26.61 64.39v554.26q0 37.78-26.61 64.39t-64.39 26.61H162.87Z"/></svg>