<svg xmlns="http://www.w3.org/2000/svg" height="24px" viewBox="0 -960 960 960" width="24px" fill="#e3e3e3"><path d="M481.2-71.87q-84.59 0-158.99-32.14t-129.43-87.23q-55.03-55.1-87.13-129.58-32.11-74.48-32.11-159.17 0-84.68 32.1-159.12 32.1-74.43 87.29-129.63 55.2-55.19 129.65-87.29 74.45-32.1 159.09-32.1 123.35 0 224.86 67.65Q808.04-752.83 856.52-640H718.09v492.2q-52.52 36.32-112.81 56.13Q545-71.87 481.2-71.87ZM609.17-352.5q52.5-52.5 52.5-127.5t-52.5-127.5q-52.5-52.5-127.5-52.5t-127.5 52.5q-52.5 52.5-52.5 127.5t52.5 127.5q52.5 52.5 127.5 52.5t127.5-52.5Zm-156-99q-11.5-11.5-11.5-28.5t11.5-28.5q11.5-11.5 28.5-11.5t28.5 11.5q11.5 11.5 11.5 28.5t-11.5 28.5q-11.5 11.5-28.5 11.5t-28.5-11.5ZM809.83-88.15q-12.94-12.94-12.94-31.85 0-18.91 12.94-31.85 12.93-12.93 31.84-12.93 18.92 0 31.85 12.93 12.94 12.94 12.94 31.85 0 18.91-12.94 31.85-12.93 12.93-31.85 12.93-18.91 0-31.84-12.93ZM798.09-240v-320h87.17v320h-87.17Z"/></svg>