<svg xmlns="http://www.w3.org/2000/svg" height="24px" viewBox="0 -960 960 960" width="24px" fill="#e3e3e3"><path d="M310.53-411.14q12.34-12.34 12.34-30.53 0-18.2-12.34-30.54-12.33-12.33-30.53-12.33-18.2 0-30.53 12.33-12.34 12.34-12.34 30.54 0 18.19 12.34 30.53Q261.8-398.8 280-398.8q18.2 0 30.53-12.34Zm0-160q12.34-12.34 12.34-30.53 0-18.2-12.34-30.54-12.33-12.33-30.53-12.33-18.2 0-30.53 12.33-12.34 12.34-12.34 30.54 0 18.19 12.34 30.53Q261.8-558.8 280-558.8q18.2 0 30.53-12.34Zm52.34 171.38H720v-83.83H362.87v83.83Zm0-160H720v-83.83H362.87v83.83ZM315.7-111.87v-80H162.87q-37.78 0-64.39-26.61t-26.61-64.39v-474.26q0-37.78 26.61-64.39t64.39-26.61h634.26q37.78 0 64.39 26.61t26.61 64.39v474.26q0 37.78-26.61 64.39t-64.39 26.61H644.3v80H315.7Z"/></svg>