<svg xmlns="http://www.w3.org/2000/svg" height="24px" viewBox="0 -960 960 960" width="24px" fill="#e3e3e3"><path d="M120.54-159.59q-48.67-48.67-48.67-116.82 0-68.16 48.67-116.83 48.68-48.67 116.83-48.67 21.33 0 39.39 4.78 18.07 4.78 35.11 14.35v-346.31l496.26-80v492.68q0 68.15-48.67 116.82-48.68 48.68-116.83 48.68T525.8-239.59q-48.67-48.67-48.67-116.82 0-68.16 48.67-116.83 48.68-48.67 116.83-48.67 21.33 0 39.39 4.78 18.07 4.78 35.11 14.35v-160.94L402.87-605.5v329.09q0 68.15-48.67 116.82-48.68 48.68-116.83 48.68t-116.83-48.68Z"/></svg>