<svg xmlns="http://www.w3.org/2000/svg" height="24px" viewBox="0 -960 960 960" width="24px" fill="#e3e3e3"><path d="M336.27-99.53q-67.05-29.1-116.75-78.8-49.69-49.69-78.79-116.75-29.1-67.05-29.1-143.49h91q0 115.81 80.78 196.47Q364.2-161.43 480-161.43t196.59-80.74q80.78-80.73 80.78-196.63 0-115.81-80.9-196.47t-196.71-80.66h-6.24l60.09 60.08-58.63 60.63-166.22-166.21 166.22-166.22 58.63 60.87-59.85 59.85h6q76.74 0 143.76 29.09 67.02 29.1 116.84 78.8 49.81 49.69 78.91 116.64 29.1 66.95 29.1 143.61 0 76.66-29.1 143.71-29.1 67.06-78.79 116.75-49.7 49.7-116.7 78.8-67.01 29.1-143.73 29.1-76.72 0-143.78-29.1Zm42.53-216.88v-61.68h119.29v-39.76H378.8V-558.8h182.16v61.67H441.67v39.76h79.29q17 0 28.5 11.5t11.5 28.5v60.96q0 17-11.5 28.5t-28.5 11.5H378.8Z"/></svg>