<svg xmlns="http://www.w3.org/2000/svg" height="24px" viewBox="0 -960 960 960" width="24px" fill="#e3e3e3"><path d="M677.13-71.87H282.87q-37.54 0-64.27-26.73-26.73-26.73-26.73-64.27v-634.26q0-37.54 26.73-64.27 26.73-26.73 64.27-26.73h394.26q37.54 0 64.27 26.73 26.73 26.73 26.73 64.27v634.26q0 37.54-26.73 64.27-26.73 26.73-64.27 26.73ZM536.5-620.63q23.5-23.5 23.5-56.5t-23.5-56.5q-23.5-23.5-56.5-23.5t-56.5 23.5q-23.5 23.5-23.5 56.5t23.5 56.5q23.5 23.5 56.5 23.5t56.5-23.5ZM593-247q47-47 47-113t-47-113q-47-47-113-47t-113 47q-47 47-47 113t47 113q47 47 113 47t113-47Zm-169.5-56.5Q400-327 400-360t23.5-56.5Q447-440 480-440t56.5 23.5Q560-393 560-360t-23.5 56.5Q513-280 480-280t-56.5-23.5Z"/></svg>