<svg xmlns="http://www.w3.org/2000/svg" height="24px" viewBox="0 -960 960 960" width="24px" fill="#e3e3e3"><path d="M570.74-384.96q37.39-37.39 37.39-90.74 0-53.34-37.39-90.73-37.39-37.4-90.74-37.4-53.35 0-90.74 37.4-37.39 37.39-37.39 90.73 0 53.35 37.39 90.74 37.39 37.4 90.74 37.4 53.35 0 90.74-37.4ZM361.43-30.43q-37.78 0-64.39-26.61t-26.61-64.39v-717.14q0-37.78 26.61-64.39t64.39-26.61h237.14q37.78 0 64.39 26.61t26.61 64.39v717.14q0 37.78-26.61 64.39t-64.39 26.61H361.43Zm73.68-400.37q-18.46-18.46-18.46-44.9 0-26.43 18.46-44.89 18.46-18.45 44.89-18.45t44.89 18.45q18.46 18.46 18.46 44.89 0 26.44-18.46 44.9-18.46 18.45-44.89 18.45t-44.89-18.45Zm74.71-299.38q12.09-12.1 12.09-29.82t-12.09-29.82q-12.1-12.09-29.82-12.09t-29.82 12.09q-12.09 12.1-12.09 29.82t12.09 29.82q12.1 12.09 29.82 12.09t29.82-12.09Z"/></svg>